<?xml version="1.0" encoding="UTF-8"?>
<svg width="56px" height="50px" viewBox="0 0 56 50" version="1.1" xmlns="http://www.w3.org/2000/svg" xmlns:xlink="http://www.w3.org/1999/xlink">
    <!-- Generator: Sketch 51.3 (57544) - http://www.bohemiancoding.com/sketch -->
    <title>all games</title>
    <desc>Created with Sketch.</desc>
    <defs></defs>
    <g id="Page-1" stroke="none" stroke-width="1" fill="none" fill-rule="evenodd">
        <g id="noun_Sports_2525535-(2)" transform="translate(-1.000000, 0.000000)" fill="#FFFFFF" fill-rule="nonzero">
            <g id="all-games">
                <path d="M8.87,10.34 L13.87,13.11 L18.48,11 L19.48,5.76 L15.3,1.19 L15.88,0.19 C12.7025432,0.57216955 9.70093403,1.85609488 7.23,3.89 L8.11,4.06 L8.87,10.34 Z" id="Shape"></path>
                <path d="M25.23,2.34 L25.14,1.57 L25,1.51 C24.53,1.3 24,1.1 23.56,0.93 L23.37,0.87 C22.3037036,0.5180495 21.2049145,0.273501926 20.09,0.14 L20,0.14 C19.46,0.08 18.92,0.05 18.38,0.04 L18.27,0.04 L17.79,0.91 L21,4.33 L25.23,2.34 Z" id="Shape"></path>
                <path d="M3.32,23 L9.61,24 L13.47,20 L12.84,14.83 L7.91,12.09 L2.13,14.79 L1.29,13.89 C0.627184445,17.4121533 1.0998985,21.0538023 2.64,24.29 L3.32,23 Z" id="Shape"></path>
                <path d="M6.86,10.38 L6.3,5.7 L5.47,5.54 L5.37,5.65 C5.02,6.03 4.69,6.43 4.37,6.85 L4.25,7 C3.94,7.43 3.64,7.87 3.37,8.33 C3.1,8.79 2.86,9.26 2.63,9.75 L2.5,10 C2.29333333,10.4666667 2.10666667,10.9433333 1.94,11.43 L1.94,11.56 L2.65,12.32 L6.86,10.38 Z" id="Shape"></path>
                <path d="M1.18,40 C1.75,40.45 2.36,41 3.06,41.7 C3.76,42.4 4.87,43.39 6,44.31 L6,35.69 C4.87,36.61 3.89,37.53 3.07,38.31 C2.25,39.09 1.75,39.55 1.18,40 Z" id="Shape"></path>
                <path d="M32.53,15.79 C33.2633911,15.3468638 34.0288533,14.9591188 34.82,14.63 C34.82,14.34 34.74,14.05 34.69,13.76 C34.64,13.47 34.62,13.47 34.59,13.33 C34.52,13.03 34.46,12.73 34.38,12.44 C34.3,12.15 34.27,12.1 34.22,11.93 C34.17,11.76 34.06,11.4 33.96,11.15 C33.86,10.9 33.82,10.8 33.75,10.62 C33.68,10.44 33.6,10.25 33.51,10.06 L32.82,10 L30.82,14.27 L32.53,15.79 Z" id="Shape"></path>
                <polygon id="Shape" points="14.86 14.85 15.43 19.52 20.05 20.42 22.33 16.3 19.12 12.86"></polygon>
                <path d="M21.44,6.31 L20.44,11.31 L23.84,15 L28.94,13.66 L31.61,7.84 L32.35,7.93 C31.0643432,5.8634402 29.3361396,4.10791322 27.29,2.79 L27.38,3.56 L21.44,6.31 Z" id="Shape"></path>
                <path d="M24.43,28.1 C24.9674148,24.3994499 26.6820088,20.9702619 29.32,18.32 C29.8042844,17.8510452 30.3151271,17.4103182 30.85,17 L29.37,15.64 L24.26,17 L21.82,21.39 L23.82,28.11 L24.43,28.1 Z" id="Shape"></path>
                <path d="M9.82,30.55 L9.08,25.9 L4.44,25.17 L3.84,26.35 C4.02,26.62 4.2,26.89 4.4,27.15 C4.6,27.41 4.62,27.47 4.75,27.62 C5.14114364,28.1024899 5.55843605,28.5631807 6,29 C6.43699349,29.4351053 6.89769575,29.8457312 7.38,30.23 C7.54,30.36 7.7,30.47 7.87,30.59 C8.04,30.71 8.39,30.97 8.66,31.14 L9.82,30.55 Z" id="Shape"></path>
                <polygon id="Shape" points="43.06 39.81 43.66 40.61 43.07 39.8"></polygon>
                <path d="M56.75,27.92 C56.75,27.87 56.75,27.81 56.75,27.76 C56.75,27.71 56.68,27.43 56.64,27.26 C56.6,27.09 56.53,26.79 56.47,26.55 C56.41,26.31 56.37,26.21 56.32,26.04 C56.27,25.87 56.17,25.59 56.09,25.37 L55.9,24.87 C55.8133333,24.65 55.72,24.4333333 55.62,24.22 L55.39,23.74 C55.28,23.53 55.17,23.32 55.05,23.11 L54.79,22.66 C54.66,22.45 54.52,22.24 54.39,22.03 L54.12,21.62 C53.96,21.4 53.79,21.18 53.62,20.97 L53.36,20.64 C53.09,20.33 52.81,20.02 52.52,19.73 C52.23,19.44 51.92,19.16 51.61,18.89 L51.29,18.64 C51.07,18.47 50.86,18.29 50.63,18.13 L50.23,17.86 L49.6,17.45 L49.15,17.2 L48.51,16.86 L48,16.64 L47.34,16.35 L46.86,16.16 L46.17,15.93 L45.68,15.78 L44.94,15.6 L44.47,15.5 L44.3,15.5 C44.0444587,18.871188 45.2749502,22.185696 47.6684608,24.5734391 C50.0619714,26.9611822 53.3794383,28.1836737 56.75,27.92 Z" id="Shape"></path>
                <path d="M26.41,28.33 C28.3228725,28.6124643 30.1979621,29.1089102 32,29.81 L32,29.76 L33.41,30.41 C34.8685034,31.0863173 36.2611346,31.8964538 37.57,32.83 L37.99,33.13 C39.4954853,34.2658265 40.9282945,35.494903 42.28,36.81 C42.9145683,37.4290297 43.5822137,38.0132194 44.28,38.56 C44.7447491,38.8811669 45.022158,39.4100753 45.022158,39.975 C45.022158,40.5399247 44.7447491,41.0688331 44.28,41.39 C43.582301,41.936886 42.9146612,42.5210708 42.28,43.14 C41.45,43.93 40.46,44.85 39.28,45.79 L39.86,45.88 C44.161084,46.3644329 48.4662487,45.005672 51.71,42.14 L30.06,20.47 C28.1160334,22.6865954 26.8491998,25.4146261 26.41,28.33 Z" id="Shape"></path>
                <path d="M55.87,30 C52.0656811,30.0088387 48.4328855,28.4179944 45.8593656,25.6162243 C43.2858456,22.8144542 42.0086902,19.0598753 42.34,15.27 C38.3626977,15.0701121 34.464986,16.4339523 31.48,19.07 L53.16,40.75 C55.8046369,37.7756896 57.1825917,33.8858379 57,29.91 C56.6133333,29.97 56.2366667,30 55.87,30 Z" id="Shape"></path>
                <path d="M42.81,40 C42.24,39.54 41.62,39 40.91,38.29 C40.2,37.58 39.12,36.6 38,35.68 L38,44.32 C39.12,43.4 40.09,42.49 40.91,41.71 C41.73,40.93 42.24,40.45 42.81,40 Z" id="Shape"></path>
                <polygon id="Shape" points="35.22 33.67 34.78 33.4 34.23 33.08 34 33 34 47 34.25 46.86 34.79 46.55 35.24 46.28 35.77 45.94 36.02 45.77 36.02 34.18 35.76 34"></polygon>
                <polygon id="Shape" points="9.21 33.4 8.76 33.68 8.23 34.02 7.99 34.18 7.99 45.81 8.23 45.97 8.76 46.31 9.21 46.58 9.75 46.9 10 47 10 33 9.75 33.14"></polygon>
                <path d="M12,29.81 C15.10517,28.6160664 18.403207,28.0025569 21.73,28 L20.07,22.45 L14.87,21.45 L11,25.38 L11.71,29.87 L11.97,29.75 L12,29.81 Z" id="Shape"></path>
                <path d="M12,32 L12,48 C15.1605081,49.3466762 18.5646555,50.0275057 22,50 C25.4353445,50.0275057 28.8394919,49.3466762 32,48 L32,32 C28.8394919,30.6533238 25.4353445,29.9724943 22,30 C18.5646555,29.9724943 15.1605081,30.6533238 12,32 Z M23,37 L23,39 L25,39 L25,37 C25,36.4477153 25.4477153,36 26,36 C26.5522847,36 27,36.4477153 27,37 L27,39 L28,39 C28.5522847,39 29,39.4477153 29,40 C29,40.5522847 28.5522847,41 28,41 L27,41 L27,43 C27,43.5522847 26.5522847,44 26,44 C25.4477153,44 25,43.5522847 25,43 L25,41 L23,41 L23,43 C23,43.5522847 22.5522847,44 22,44 C21.4477153,44 21,43.5522847 21,43 L21,41 L19,41 L19,43 C19,43.5522847 18.5522847,44 18,44 C17.4477153,44 17,43.5522847 17,43 L17,41 L16,41 C15.4477153,41 15,40.5522847 15,40 C15,39.4477153 15.4477153,39 16,39 L17,39 L17,37 C17,36.4477153 17.4477153,36 18,36 C18.5522847,36 19,36.4477153 19,37 L19,39 L21,39 L21,37 C21,36.4477153 21.4477153,36 22,36 C22.5522847,36 23,36.4477153 23,37 Z" id="Shape"></path>
            </g>
        </g>
    </g>
</svg>