<svg xmlns="http://www.w3.org/2000/svg" id="Capa_1" enable-background="new 0 0 512 512" height="512" viewBox="0 0 512 512" width="512"><g><path d="m367.96 377-29.25-60h-37.77c-10.069-18.266-13.87-38.635-13.06-59.09-7.98 2.02-16.33 3.09-24.92 3.09-12.84.153-27.575.236-39.73-3.32.82 20.532-2.944 40.987-13.06 59.32h-44.88l-29.25 60z" style="&#10;    fill: #fff;&#10;"/><path d="m97.56 155.75 50.13 14.68c-1.035-7.421-.547-23.764-.65-31.46l-41.05-12.01c-38.565-11.597-37.338-68.972 5.61-70.96h9.4c14.34 0 26 11.66 26 26h.04v-49.56c-7.78-4.11-16.64-6.44-26.04-6.44h-9.4c-77.635 2.717-85.573 107.74-14.04 129.75z" style="&#10;    fill: #fff;&#10;"/><path d="m464 89.6c0-35.07-28.53-63.6-63.6-63.6h-9.4c-9.4 0-18.26 2.33-26.04 6.44v49.56h.04c0-14.34 11.66-26 26-26h9.4c42.958 1.992 44.165 59.372 5.61 70.96 0 0-41.05 12.01-41.05 12.01-.105 7.786.387 23.955-.65 31.46l50.13-14.68c29.18-8.54 49.56-35.75 49.56-66.15z" style="&#10;    fill: #fff;&#10;"/><path d="m249.04 231h13.92c39.7 0 72-32.3 72-72v-144h-157.92v144c0 39.7 32.3 72 72 72zm27.96-66h-42v-30h42zm-63-90h84v30h-84z" style="&#10;    fill: #fff;&#10;"/><path d="m45 407c-24.81 0-45 20.19-45 45s20.19 45 45 45h221.04c-19.87-25.148-19.867-64.856 0-90z" style="&#10;    fill: #fff;&#10;"/><path d="m326 407c-19.55 0-36.24 12.54-42.42 30h228.42v-30z" style="&#10;    fill: #fff;&#10;"/><path d="m283.58 467c6.18 17.46 22.87 30 42.42 30h186v-30c-38.329 0-228.42 0-228.42 0z" style="&#10;    fill: #fff;&#10;"/></g></svg>