<?xml version="1.0" encoding="UTF-8"?>
<svg width="30px" height="30px" viewBox="0 0 30 30" version="1.1" xmlns="http://www.w3.org/2000/svg" xmlns:xlink="http://www.w3.org/1999/xlink">
    <!-- Generator: Sketch 51.3 (57544) - http://www.bohemiancoding.com/sketch -->
    <title>casino (1)</title>
    <desc>Created with Sketch.</desc>
    <defs></defs>
    <g id="Page-1" stroke="none" stroke-width="1" fill="none" fill-rule="evenodd">
        <g id="home_screen1" transform="translate(-235.000000, -335.000000)" fill="#FFFFFF" fill-rule="nonzero">
            <g id="Group-Copy-3" transform="translate(220.000000, 320.000000)">
                <g id="casino-(1)" transform="translate(15.000000, 15.000000)">
                    <path d="M1.28125,21.08125 C1.9875,22.675 2.96875,24.13125 4.175,25.3875 L8.25,21.3125 C7.56875,20.5875 7.0125,19.75625 6.6,18.85625 L1.28125,21.08125 Z" id="Shape"></path>
                    <path d="M15,10.00625 C15.18125,10.00625 15.325,9.8625 15.325,9.68125 C15.325,9.5 15.18125,9.35625 15,9.35625 C14.81875,9.35625 14.675,9.5 14.675,9.68125 C14.675,9.8625 14.81875,10.00625 15,10.00625 Z" id="Shape"></path>
                    <path d="M6.33125,11.78125 L1,9.59375 C0.375,11.21875 0.0375,12.94375 0.00625,14.6875 L5.7625,14.6875 C5.79375,13.69375 5.9875,12.7125 6.33125,11.78125 Z" id="Shape"></path>
                    <path d="M6.35625,18.275 C5.99375,17.325 5.79375,16.325 5.7625,15.3125 L0.00625,15.3125 C0.0375,17.0875 0.3875,18.85 1.0375,20.5 L6.35625,18.275 Z" id="Shape"></path>
                    <path d="M14.6875,24.2375 C13.69375,24.20625 12.7125,24.0125 11.78125,23.66875 L9.59375,29 C11.21875,29.625 12.94375,29.9625 14.6875,29.99375 L14.6875,24.2375 Z" id="Shape"></path>
                    <path d="M9.5875,15.425 C9.76875,15.425 9.9125,15.28125 9.9125,15.1 C9.9125,14.91875 9.76875,14.775 9.5875,14.775 C9.40625,14.775 9.2625,14.91875 9.2625,15.1 C9.2625,15.275 9.40625,15.41875 9.5875,15.425 Z" id="Shape"></path>
                    <path d="M20.40625,1 C18.78125,0.375 17.05625,0.0375 15.3125,0.00625 L15.3125,5.7625 C16.30625,5.79375 17.2875,5.9875 18.21875,6.33125 L20.40625,1 Z" id="Shape"></path>
                    <path d="M24.2375,14.6875 L29.99375,14.6875 C29.9625,12.9125 29.6125,11.15 28.9625,9.5 L23.64375,11.725 C24.00625,12.66875 24.20625,13.675 24.2375,14.6875 Z" id="Shape"></path>
                    <path d="M21.30625,8.25 L25.38125,4.175 C24.1,2.94375 22.6125,1.94375 20.98125,1.2375 L18.79375,6.56875 C19.71875,6.9875 20.56875,7.55625 21.30625,8.25 Z" id="Shape"></path>
                    <path d="M23.4,11.14375 L28.71875,8.91875 C28.0125,7.325 27.03125,5.86875 25.825,4.6125 L21.75,8.69375 C22.43125,9.41875 22.9875,10.24375 23.4,11.14375 Z" id="Shape"></path>
                    <path d="M8.25,8.69375 L4.175,4.61875 C2.94375,5.9 1.94375,7.3875 1.2375,9.01875 L6.56875,11.20625 C6.9875,10.28125 7.55625,9.43125 8.25,8.69375 Z" id="Shape"></path>
                    <path d="M14.6875,5.7625 L14.6875,0.00625 C12.9125,0.0375 11.15,0.3875 9.5,1.0375 L11.725,6.35625 C12.66875,5.99375 13.675,5.79375 14.6875,5.7625 Z" id="Shape"></path>
                    <path d="M11.14375,6.6 L8.91875,1.28125 C7.325,1.9875 5.86875,2.96875 4.6125,4.175 L8.6875,8.25 C9.41875,7.56875 10.24375,7.0125 11.14375,6.6 Z" id="Shape"></path>
                    <path d="M11.20625,23.43125 C10.28125,23.0125 9.43125,22.44375 8.69375,21.75 L4.61875,25.825 C5.9,27.05625 7.3875,28.05625 9.01875,28.7625 L11.20625,23.43125 Z" id="Shape"></path>
                    <circle id="Oval" cx="22.0125" cy="25.41875" r="1"></circle>
                    <path d="M15.3125,24.2375 L15.3125,29.99375 C17.0875,29.9625 18.85,29.6125 20.5,28.9625 L18.275,23.64375 C17.33125,24.00625 16.325,24.20625 15.3125,24.2375 Z" id="Shape"></path>
                    <path d="M25.38125,25.825 L21.30625,21.75 C20.58125,22.43125 19.75,22.9875 18.85,23.4 L21.075,28.71875 C22.66875,28.0125 24.125,27.03125 25.38125,25.825 Z M20.425,25.41875 C20.425,24.54375 21.1375,23.83125 22.0125,23.83125 C22.8875,23.83125 23.6,24.54375 23.6,25.41875 C23.6,26.29375 22.8875,27.00625 22.0125,27.00625 C21.1375,27.00625 20.425,26.29375 20.425,25.41875 Z" id="Shape"></path>
                    <path d="M28.7625,20.98125 L23.43125,18.79375 C23.0125,19.71875 22.44375,20.56875 21.75,21.30625 L25.825,25.38125 C27.05625,24.1 28.05625,22.6125 28.7625,20.98125 Z" id="Shape"></path>
                    <path d="M6.38125,15 C6.38125,19.75 10.25,23.61875 15,23.61875 C19.75,23.61875 23.61875,19.75 23.61875,15 C23.61875,10.25 19.75,6.38125 15,6.38125 C10.25,6.38125 6.38125,10.25 6.38125,15 Z M9.5875,14.14375 C9.99375,14.14375 10.35,14.4 10.48125,14.78125 L12.78125,14.78125 C12.88125,13.75625 13.66875,12.9375 14.6875,12.79375 L14.6875,10.575 C14.19375,10.4 13.93125,9.8625 14.1,9.3625 C14.26875,8.8625 14.8125,8.60625 15.3125,8.775 C15.8125,8.94375 16.06875,9.4875 15.9,9.9875 C15.80625,10.2625 15.5875,10.475 15.3125,10.575 L15.3125,12.79375 C16.33125,12.9375 17.1125,13.7625 17.21875,14.78125 L19.51875,14.78125 C19.69375,14.2875 20.23125,14.025 20.73125,14.19375 C21.225,14.36875 21.4875,14.90625 21.31875,15.40625 C21.15,15.90625 20.60625,16.1625 20.10625,15.99375 C19.83125,15.9 19.61875,15.68125 19.51875,15.40625 L17.1875,15.40625 C17.0125,16.34375 16.25625,17.06875 15.3125,17.2 L15.3125,19.60625 C15.80625,19.78125 16.06875,20.31875 15.9,20.81875 C15.725,21.3125 15.1875,21.575 14.6875,21.40625 C14.1875,21.2375 13.93125,20.69375 14.1,20.19375 C14.19375,19.91875 14.4125,19.70625 14.6875,19.60625 L14.6875,17.2 C13.74375,17.0625 12.9875,16.34375 12.8125,15.40625 L10.48125,15.40625 C10.30625,15.9 9.76875,16.1625 9.26875,15.9875 C8.775,15.8125 8.5125,15.275 8.6875,14.775 C8.825,14.4 9.18125,14.14375 9.5875,14.14375 Z" id="Shape"></path>
                    <circle id="Oval" cx="15" cy="20.5125" r="1"></circle>
                    <path d="M29.99375,15.3125 L24.2375,15.3125 C24.20625,16.30625 24.0125,17.2875 23.66875,18.21875 L29,20.40625 C29.625,18.775 29.9625,17.05625 29.99375,15.3125 Z" id="Shape"></path>
                    <circle id="Oval" cx="15" cy="15" r="1"></circle>
                    <path d="M15,16.6 C15.8875,16.6 16.6,15.88125 16.6,15 C16.6,14.1125 15.88125,13.4 15,13.4 C14.1125,13.4 13.4,14.11875 13.4,15 C13.4,15.88125 14.11875,16.6 15,16.6 Z M15,14.125 C15.48125,14.125 15.875,14.51875 15.875,15 C15.875,15.48125 15.48125,15.875 15,15.875 C14.51875,15.875 14.125,15.48125 14.125,15 C14.125,14.51875 14.51875,14.125 15,14.125 Z" id="Shape"></path>
                    <path d="M20.4125,15.425 C20.59375,15.425 20.7375,15.28125 20.7375,15.1 C20.7375,14.91875 20.59375,14.775 20.4125,14.775 C20.23125,14.775 20.0875,14.91875 20.0875,15.1 C20.0875,15.275 20.23125,15.41875 20.4125,15.425 Z" id="Shape"></path>
                </g>
            </g>
        </g>
    </g>
</svg>