<svg xmlns="http://www.w3.org/2000/svg" width="50" height="38.716" viewBox="0 0 50 38.716">
  <g id="noun_online_casino_1453990" data-name="noun_online casino_1453990" transform="translate(0 -5.642)">
    <g id="Group_54" data-name="Group 54">
      <path id="Path_81" data-name="Path 81" d="M25,10.362a8,8,0,1,1-5.655,13.652A8,8,0,0,1,25,10.362m2.913,2.008a6.624,6.624,0,0,0-2.443-.653v1.358a5.27,5.27,0,0,1,1.763.471Zm-3.385.7V11.718a6.555,6.555,0,0,0-2.449.643l.68,1.179A5.206,5.206,0,0,1,24.53,13.075Zm-2.583.937-.68-1.178a6.636,6.636,0,0,0-1.773,1.8l1.174.677A5.267,5.267,0,0,1,21.947,14.012ZM20.2,16.132l-1.174-.677a6.862,6.862,0,0,0-.663,2.435h1.358A5.468,5.468,0,0,1,20.2,16.132Zm-.487,2.7H18.354a6.419,6.419,0,0,0,.652,2.446l1.177-.679A5.121,5.121,0,0,1,19.713,18.831Zm.948,2.58-1.177.68a6.987,6.987,0,0,0,1.788,1.788l.68-1.177A5.551,5.551,0,0,1,20.661,21.411Zm2.1,1.768-.679,1.176a6.419,6.419,0,0,0,2.446.652V23.648A5.1,5.1,0,0,1,22.763,23.179Zm2.709.461V25a6.883,6.883,0,0,0,2.434-.663l-.677-1.174A5.442,5.442,0,0,1,25.472,23.64Zm2.576-.945.677,1.174a6.625,6.625,0,0,0,1.8-1.773l-1.178-.68A5.324,5.324,0,0,1,28.048,22.695ZM29.823,20.6,31,21.281a6.579,6.579,0,0,0,.643-2.45H30.287A5.222,5.222,0,0,1,29.823,20.6Zm.463-2.71h1.358a6.629,6.629,0,0,0-.653-2.444l-1.176.679A5.281,5.281,0,0,1,30.286,17.89Zm-.943-2.581,1.177-.679a6.7,6.7,0,0,0-1.788-1.788l-.68,1.177A5.326,5.326,0,0,1,29.343,15.309Zm-1.851,3.469c0-1.084-1.793-2.85-2.492-3.682-.7.833-2.492,2.6-2.492,3.682A1.273,1.273,0,0,0,24.314,20L24,21.25H26L25.687,20A1.272,1.272,0,0,0,27.492,18.778ZM28.621,38.5l1.348,2.123H20.031L21.379,38.5Zm13.546-6.481H7.833L0,44.358H50Zm0-26.379H7.833V31.083H42.167Z" fill="#fff" fill-rule="evenodd"/>
    </g>
  </g>
</svg>
