<svg id="Group_493" data-name="Group 493" xmlns="http://www.w3.org/2000/svg" width="16.002" height="16" viewBox="0 0 16.002 16">
  <g id="Group_494" data-name="Group 494" transform="translate(0 0)">
    <g id="Group_493-2" data-name="Group 493" transform="translate(0 0)">
      <path id="Path_23" data-name="Path 23" d="M67.663,60.736c-.005.179-.016.359-.031.536-.007.082-.017.165-.028.247-.007.063.016-.115,0-.019,0,.017-.005.037-.009.054-.007.051-.016.1-.024.15a7.571,7.571,0,0,1-.251,1.038c-.054.169-.113.334-.179.5l-.047.117c-.024.059.044-.1.005-.014-.007.017-.016.035-.023.052-.038.085-.077.171-.118.254a7.431,7.431,0,0,1-.55.946c-.049.071-.1.141-.15.211l-.078.1c-.059.078.045-.057.005-.007l-.054.068c-.118.148-.244.293-.374.432s-.277.286-.423.42-.319.258-.468.4c.085-.078-.019.014-.044.033s-.073.054-.11.08c-.082.057-.164.115-.247.171-.157.1-.319.2-.484.293s-.34.179-.514.259c-.04.019-.08.037-.12.054a.3.3,0,0,1-.054.023c.1-.019.044-.017.009,0-.091.037-.181.073-.272.106a7.476,7.476,0,0,1-1.074.306c-.085.017-.171.033-.256.049-.047.009-.1.016-.143.023l-.057.009c-.1.016.1-.012,0,0-.181.023-.364.04-.545.05a7.689,7.689,0,0,1-1.25-.033.632.632,0,0,1-.152-.017c.064.028.054.007.016,0l-.084-.012c-.1-.016-.207-.035-.31-.054-.212-.042-.425-.094-.632-.153s-.4-.124-.59-.2c-.045-.017-.091-.035-.136-.054-.024-.01-.05-.019-.075-.031.012.005.087.038.014.005-.1-.044-.2-.089-.3-.136a7.386,7.386,0,0,1-1.033-.606c-.084-.057-.164-.118-.246-.179-.054-.04.082.064,0,0-.017-.014-.035-.026-.051-.04-.047-.037-.092-.075-.139-.113-.16-.134-.313-.275-.463-.421s-.275-.282-.4-.432c-.057-.066-.115-.134-.169-.2l-.082-.1c-.04-.05.064.085.005.007l-.052-.07a7.465,7.465,0,0,1-.583-.921c-.085-.158-.164-.319-.237-.484,0-.009-.052-.131-.056-.129s.037.089.01.026c-.009-.023-.017-.044-.026-.064-.035-.087-.068-.174-.1-.263a7.663,7.663,0,0,1-.289-1.034c-.017-.082-.031-.164-.045-.246-.007-.042-.014-.082-.019-.124s-.024-.205-.01-.063c-.017-.176-.038-.348-.049-.524a7.6,7.6,0,0,1,.019-1.144c.009-.091.019-.183.03-.273.007-.064-.017.113,0,.016,0-.019.005-.038.009-.057.009-.052.016-.1.026-.157.031-.181.07-.362.113-.54a7.886,7.886,0,0,1,.35-1.067c.03-.071-.007.014-.01.023a.383.383,0,0,1,.03-.068c.017-.04.037-.08.054-.12.042-.089.084-.178.129-.266.085-.167.178-.333.275-.493s.2-.322.315-.475c.03-.042.059-.082.089-.122l.037-.049c.061-.082-.044.054,0,0,.066-.082.132-.165.2-.246a7.568,7.568,0,0,1,.869-.867c.07-.059.141-.117.212-.174.016-.012.031-.026.047-.037-.087.061-.026.019,0,0l.134-.1c.153-.111.312-.216.474-.315s.324-.19.491-.275c.078-.04.158-.08.239-.117.044-.021.089-.042.134-.061l.054-.024c.019-.009.038-.017.057-.024-.014.005-.028.012-.044.017a6.145,6.145,0,0,1,1.212-.388,4.256,4.256,0,0,1,.643-.118c-.014,0-.1.012-.016,0l.066-.009c.056-.007.111-.012.165-.017.111-.01.223-.019.333-.024a7.659,7.659,0,0,1,1.215.035c.056.005.113.012.169.021-.014,0-.1-.014-.016,0l.068.01c.111.017.223.037.334.059.181.037.36.078.538.129s.343.1.51.162c.084.03.169.061.251.094l.1.042c.094.038-.092-.04,0,0l.078.035a7.689,7.689,0,0,1,.959.514c.155.1.308.2.456.312.021.016.158.108.052.038a.944.944,0,0,1,.092.073c.077.061.153.125.226.19a7.866,7.866,0,0,1,.8.811c.059.07.118.141.176.214a.462.462,0,0,0,.037.045c-.068-.078-.03-.038-.016-.019l.1.139c.106.148.209.3.3.453a7.293,7.293,0,0,1,.5.953c.009.017.021.091.01.026s0,.009.01.026l.042.1c.035.087.066.174.1.263.059.171.113.345.162.519s.087.341.12.514c.017.085.033.172.047.259.007.042.012.082.019.124s.007.1,0-.019c0,.028.007.056.01.082a8.97,8.97,0,0,1,.044,1.087.439.439,0,0,0,.435.435.444.444,0,0,0,.435-.435,7.99,7.99,0,0,0-4.775-7.5,8.222,8.222,0,0,0-2.431-.639,7.975,7.975,0,0,0-6.919,2.816,8.1,8.1,0,0,0-1.844,4.461,7.988,7.988,0,0,0,4.515,7.9,8.127,8.127,0,0,0,5.139.606,8,8,0,0,0,6.208-6.509,8.5,8.5,0,0,0,.108-1.132A.439.439,0,0,0,68.1,60.3.447.447,0,0,0,67.663,60.736Z" transform="translate(-52.535 -52.554)" fill="#fff"/>
    </g>
  </g>
  <g id="Group_496" data-name="Group 496" transform="translate(3.765 0.001)">
    <g id="Group_495" data-name="Group 495" transform="translate(0 0)">
      <path id="Path_24" data-name="Path 24" d="M280.111,60.806c-.005.211-.019.423-.042.634-.005.05-.012.1-.017.151s.017-.115,0-.019c0,.028-.009.054-.012.082-.017.11-.035.218-.057.327a7.557,7.557,0,0,1-.341,1.2c-.017.049-.037.1-.056.143l-.026.064-.01.026.01-.026c-.017.005-.047.108-.056.129-.026.059-.054.12-.084.178-.091.186-.188.371-.294.549s-.232.373-.359.552l-.094.129-.044.057c-.061.082.061-.077,0,0s-.146.181-.223.27a7.717,7.717,0,0,1-1.017.979.718.718,0,0,1-.071.056c.087-.059.026-.019,0,0l-.134.1c-.1.07-.2.139-.3.2-.183.118-.371.23-.562.333-.1.051-.192.1-.289.146-.052.026-.106.05-.16.075l-.054.024c-.024.01-.145.073-.031.014a4.016,4.016,0,0,1-.63.232q-.306.1-.616.167c-.1.023-.207.045-.312.064-.057.01-.113.021-.171.03l-.057.009-.057.009c-.049.007-.038.005.03,0a.847.847,0,0,0-.172.021c-.066.007-.134.014-.2.019q-.172.013-.345.021a7.657,7.657,0,0,1-.848-.016,3.367,3.367,0,0,1-.4-.04c.115.024.007,0-.016,0l-.131-.021c-.066-.01-.131-.023-.2-.035a7.815,7.815,0,0,1-.841-.211l.192.111c-.026-.031-.054-.064-.078-.1-.012-.016-.057-.075-.005-.005s0,0-.014-.019c-.051-.066-.1-.136-.145-.205a4.892,4.892,0,0,1-.27-.46c-.044-.085-.085-.171-.125-.258-.019-.042-.038-.084-.056-.127-.037-.084.037.089.01.026l-.031-.078c-.078-.2-.146-.392-.207-.592a9.892,9.892,0,0,1-.31-1.4c-.01-.066-.019-.134-.03-.2s.014.108,0,0c-.005-.038-.01-.078-.014-.117-.017-.143-.033-.286-.045-.428-.028-.3-.047-.594-.061-.89a18.512,18.512,0,0,1,.005-1.942c.01-.155.023-.312.038-.467.007-.071.014-.145.023-.216.005-.038.009-.077.014-.115s.024-.172.005-.042c.044-.291.089-.582.148-.871a12.373,12.373,0,0,1,.467-1.67c.049-.134.1-.268.151-.4.014-.033.026-.066.04-.1s.047-.111.019-.045.019-.044.024-.057l.047-.108c.111-.247.232-.493.36-.731s.261-.46.406-.683c.07-.106.141-.212.214-.317.035-.05.071-.1.108-.148l.057-.078c.01-.012.019-.026.03-.038.045-.059-.049.063-.016.021A8.258,8.258,0,0,1,272.8,53.6c.089-.078.178-.153.27-.228l-.308.127c.214-.007.43,0,.644.009.193.01.385.042.578.054-.009,0-.11-.016-.033,0l.082.012c.042.007.082.012.124.021.1.016.192.035.286.054.19.04.38.087.566.143s.373.117.556.186l.131.051.052.021c.017.007.091.019.026.01s.007,0,.026.01l.064.028.141.064a7.459,7.459,0,0,1,1.036.6c.075.052.15.1.223.158l.057.044.024.019c-.057-.045.019.014.024.019l.068.054c.16.129.315.266.463.407s.294.293.432.448c.061.07.122.139.181.211l.092.113a.73.73,0,0,1,.045.057c-.057-.1-.016-.019,0,0A7.615,7.615,0,0,1,279.3,57.3c.089.165.171.336.246.508l.01.026q.029.065-.01-.026a.294.294,0,0,0,.021.052l.052.131c.037.1.073.192.106.289a7.6,7.6,0,0,1,.31,1.24c.009.052.01.113.024.164-.03-.11-.007-.056,0-.019s.009.064.012.1c.012.1.021.2.028.3.019.249.024.495.019.742a.439.439,0,0,0,.435.435.444.444,0,0,0,.435-.435,7.99,7.99,0,0,0-6.666-8.068,8.183,8.183,0,0,0-1.186-.111q-.146,0-.293,0a.547.547,0,0,0-.3.061c-.056.037-.106.084-.159.125-.111.092-.221.188-.327.286a9.6,9.6,0,0,0-2.2,3.164,13.128,13.128,0,0,0-1.064,4.319,17.707,17.707,0,0,0,0,2.354,15.518,15.518,0,0,0,.253,2.1,6.943,6.943,0,0,0,1.132,2.809,1.26,1.26,0,0,0,.327.371,1.714,1.714,0,0,0,.36.118c.108.03.216.056.324.082a8.374,8.374,0,0,0,1.348.192,7.981,7.981,0,0,0,6.426-2.663,7.973,7.973,0,0,0,1.921-4.024,8.62,8.62,0,0,0,.106-1.118.439.439,0,0,0-.435-.435A.444.444,0,0,0,280.111,60.806Z" transform="translate(-268.748 -52.625)" fill="#fff"/>
    </g>
  </g>
  <g id="Group_498" data-name="Group 498" transform="translate(5.378 0.155)">
    <g id="Group_497" data-name="Group 497" transform="translate(0 0)">
      <path id="Path_25" data-name="Path 25" d="M554.021,62.57a.435.435,0,0,1-.287-.763c.1-.092.193-.167.275-.235a.435.435,0,0,1,.554.672c-.075.063-.157.131-.254.218A.437.437,0,0,1,554.021,62.57Z" transform="translate(-550.238 -61.472)" fill="#fff"/>
      <path id="Path_26" data-name="Path 26" d="M362.4,172.786a.435.435,0,0,1-.411-.293c-.08-.233-.155-.479-.221-.731a.435.435,0,0,1,.843-.219c.059.23.127.453.2.663a.436.436,0,0,1-.268.554A.376.376,0,0,1,362.4,172.786Zm-.54-2.671a.437.437,0,0,1-.434-.4c-.021-.242-.038-.493-.051-.745a.435.435,0,1,1,.869-.04c.01.24.026.479.047.707a.434.434,0,0,1-.4.472A.124.124,0,0,1,361.86,170.115Zm-.023-2.729a.256.256,0,0,1-.037,0,.436.436,0,0,1-.4-.47c.021-.249.049-.5.082-.749a.435.435,0,1,1,.862.12c-.031.232-.057.467-.077.7A.432.432,0,0,1,361.838,167.386Zm.508-2.678a.459.459,0,0,1-.127-.019.435.435,0,0,1-.289-.543c.073-.24.155-.482.242-.716a.436.436,0,1,1,.817.3c-.082.218-.157.441-.225.665A.437.437,0,0,1,362.346,164.708Zm1.1-2.5a.43.43,0,0,1-.223-.061.436.436,0,0,1-.152-.6c.131-.219.27-.434.413-.637a.435.435,0,0,1,.712.5c-.131.188-.259.385-.378.585A.431.431,0,0,1,363.443,162.213Z" transform="translate(-361.376 -159.003)" fill="#fff"/>
      <path id="Path_27" data-name="Path 27" d="M448.165,906.156a.437.437,0,0,1-.334-.155c-.078-.092-.153-.188-.232-.293a.436.436,0,1,1,.7-.521c.068.091.134.174.2.254a.434.434,0,0,1-.054.613A.429.429,0,0,1,448.165,906.156Z" transform="translate(-446.012 -890.323)" fill="#fff"/>
    </g>
  </g>
  <g id="Group_500" data-name="Group 500" transform="translate(2.147 0.566)">
    <g id="Group_499" data-name="Group 499" transform="translate(0 0)">
      <path id="Path_28" data-name="Path 28" d="M217.959,811.977a.433.433,0,0,1-.4-.254c-.042-.092-.1-.212-.148-.343a.436.436,0,1,1,.811-.317c.042.11.089.211.127.3a.435.435,0,0,1-.214.576A.42.42,0,0,1,217.959,811.977Z" transform="translate(-216.662 -798.148)" fill="#fff"/>
      <path id="Path_29" data-name="Path 29" d="M176.446,207.871a.434.434,0,0,1-.428-.366c-.038-.239-.073-.489-.1-.745a.435.435,0,1,1,.865-.1c.026.242.059.477.094.7a.435.435,0,0,1-.36.5A.487.487,0,0,1,176.446,207.871Zm-.209-2.729a.435.435,0,0,1-.435-.432c0-.077,0-.155,0-.235v-.12c0-.131,0-.263.007-.394a.435.435,0,1,1,.869.03c0,.122-.007.246-.007.369v.117c0,.077,0,.152,0,.226a.436.436,0,0,1-.432.439Zm.233-2.724a.341.341,0,0,1-.084-.009.435.435,0,0,1-.345-.51c.047-.247.1-.495.164-.737a.436.436,0,1,1,.845.214c-.057.226-.108.458-.153.69A.436.436,0,0,1,176.47,202.419Zm.8-2.614a.462.462,0,0,1-.172-.035.437.437,0,0,1-.228-.573c.1-.232.207-.463.32-.686a.435.435,0,0,1,.777.394c-.1.207-.205.421-.3.637A.431.431,0,0,1,177.271,199.8Z" transform="translate(-175.8 -196.301)" fill="#fff"/>
      <path id="Path_30" data-name="Path 30" d="M314.543,86.215a.435.435,0,0,1-.345-.7c.066-.085.139-.176.226-.282a.435.435,0,0,1,.672.554c-.082.1-.148.183-.209.261A.434.434,0,0,1,314.543,86.215Z" transform="translate(-311.7 -85.072)" fill="#fff"/>
    </g>
  </g>
</svg>
