<svg xmlns="http://www.w3.org/2000/svg" width="19.967" height="13.792" viewBox="0 0 19.967 13.792"><g transform="translate(0 -0.675)"><g transform="translate(0 0.153)" opacity="0.648"><path d="M3.089,13.032,16.121,0l.762.755L3.848,13.792Zm4.132-1.068L9.293,9.892a2.153,2.153,0,0,0,.69.076A3.08,3.08,0,0,0,13.056,6.9,2.134,2.134,0,0,0,12.98,6.2l3.073-3.072a11.771,11.771,0,0,1,3.915,3.758,11.8,11.8,0,0,1-9.984,5.378A10.555,10.555,0,0,1,7.221,11.964ZM0,6.9A11.8,11.8,0,0,1,9.98,1.518a10.6,10.6,0,0,1,2.767.309L10.675,3.9a2.134,2.134,0,0,0-.691-.077A3.08,3.08,0,0,0,6.912,6.9a2.153,2.153,0,0,0,.076.69L3.916,10.659A11.765,11.765,0,0,1,0,6.9Zm12.29,0A2.229,2.229,0,0,1,11.6,8.51a2.211,2.211,0,0,1-1.615.69ZM8.369,5.281A2.215,2.215,0,0,1,9.984,4.59L7.679,6.9A2.211,2.211,0,0,1,8.369,5.281Z" transform="translate(0 0.522)" fill="#a9a9a9"/></g></g></svg>