<svg xmlns="http://www.w3.org/2000/svg" width="49.006" height="40.473" viewBox="0 0 49.006 40.473">
  <g id="Group_406" data-name="Group 406" transform="translate(-2 -1030.845)">
    <path id="Path_9" data-name="Path 9" d="M21.583,2.482a7.042,7.042,0,0,0-5,2.048L4.053,17.069a7.1,7.1,0,0,0,0,9.988L17.5,40.5H2v2.45H51.006V40.5H42.99l4.786-4.786a7.1,7.1,0,0,0,0-9.988l-21.2-21.2A7.03,7.03,0,0,0,21.583,2.482Zm0,4.857A2.165,2.165,0,0,1,23.11,8l21.2,21.2a2.107,2.107,0,0,1,0,3.058l-7.8,7.8-.455.455H24.431l-.33-.33L7.518,23.592a2.106,2.106,0,0,1,0-3.058L20.052,8a2.154,2.154,0,0,1,1.527-.66Zm4.929,12.61a3.814,3.814,0,0,0-2.326,1.244,3.7,3.7,0,0,0,0,5.2l3.465,3.465a1.167,1.167,0,0,1,0,1.732,1.686,1.686,0,0,1-.828.541c-.144.025-.363,0-.9-.536l-6.068-6.064-1.732,1.732,3.46,3.46L19.812,32.5l1.732,1.732,1.766-1.771.861.861a3.669,3.669,0,0,0,2.886,1.254,3.818,3.818,0,0,0,2.321-1.244,3.7,3.7,0,0,0,0-5.2l-3.465-3.465a1.172,1.172,0,0,1,0-1.737,1.664,1.664,0,0,1,.833-.536c.148-.025.363-.025.89.526h0l4.336,4.341L33.71,25.53,31.978,23.8l1.728-1.728-1.733-1.732-1.728,1.728-.857-.857a3.651,3.651,0,0,0-2.881-1.259Z" transform="translate(0 1028.362)" fill="#fff"/>
  </g>
</svg>
