<svg xmlns="http://www.w3.org/2000/svg" width="34.231" height="40.455" viewBox="0 0 34.231 40.455">
  <g id="Group_405" data-name="Group 405" transform="translate(-5 -2)">
    <path id="Path_3" data-name="Path 3" d="M19.336,20.671A9.336,9.336,0,1,0,10,11.336,9.346,9.346,0,0,0,19.336,20.671Zm0-15.56a6.224,6.224,0,1,1-6.224,6.224A6.231,6.231,0,0,1,19.336,5.112Z" transform="translate(2.78)" fill="#fff"/>
    <path id="Path_4" data-name="Path 4" d="M6.556,24.336A1.556,1.556,0,0,0,8.112,22.78a4.673,4.673,0,0,1,4.668-4.668,1.556,1.556,0,1,0,0-3.112A7.789,7.789,0,0,0,5,22.78,1.556,1.556,0,0,0,6.556,24.336Z" transform="translate(0 7.227)" fill="#fff"/>
    <path id="Path_5" data-name="Path 5" d="M22.556,15a1.556,1.556,0,0,0,0,3.112,4.673,4.673,0,0,1,4.668,4.668,1.556,1.556,0,1,0,3.112,0A7.789,7.789,0,0,0,22.556,15Z" transform="translate(8.895 7.227)" fill="#fff"/>
    <path id="Path_6" data-name="Path 6" d="M22.233,18.924,16.9,25.591l-3.481-2.321a1.556,1.556,0,1,0-1.726,2.589l3.481,2.321a3.1,3.1,0,0,0,4.156-.646l5.333-6.666a1.556,1.556,0,0,0-2.43-1.943Z" transform="translate(3.336 9.085)" fill="#fff"/>
    <path id="Path_7" data-name="Path 7" d="M14.316,31.224h-6.2V26.556a1.556,1.556,0,0,0-3.112,0v4.668a3.115,3.115,0,0,0,3.112,3.112h6.2a1.556,1.556,0,0,0,0-3.112Z" transform="translate(0 8.119)" fill="#fff"/>
    <path id="Path_8" data-name="Path 8" d="M29.316,25a1.556,1.556,0,0,0-1.556,1.556v4.668h-6.2a1.556,1.556,0,0,0,0,3.112h6.2a3.115,3.115,0,0,0,3.112-3.112V26.556A1.556,1.556,0,0,0,29.316,25Z" transform="translate(8.339 8.119)" fill="#fff"/>
  </g>
</svg>
