<svg xmlns="http://www.w3.org/2000/svg" width="65.755" height="30.201" viewBox="0 0 65.755 30.201">
  <g id="Group_407" data-name="Group 407" transform="translate(-883 -1348)">
    <path id="Path_10" data-name="Path 10" d="M74.751,51.168a21.268,21.268,0,0,0-2.022-5.221l-4.962-9.054a7.435,7.435,0,0,0-2.791-2.869L62.06,32.33a5.16,5.16,0,0,0-3.818-.557l-.956.235a5.187,5.187,0,0,0-3.237,2.414H31.707a5.147,5.147,0,0,0-3.238-2.414l-.956-.235a5.16,5.16,0,0,0-3.818.557l-2.916,1.693a7.435,7.435,0,0,0-2.791,2.869l-4.962,9.054A21.586,21.586,0,0,0,11,51.168L10,55.33l3.041.737L14.053,51.9a18.2,18.2,0,0,1,1.725-4.453L20.74,38.4a4.292,4.292,0,0,1,1.623-1.662l2.908-1.7a2.037,2.037,0,0,1,1.5-.212l.447.11a2.384,2.384,0,0,0-.933,1.9v6.06l2.265-2.6a5.49,5.49,0,0,1,8.835,6.459l-3.206,5.244H51.563l-3.191-5.244a5.491,5.491,0,0,1,8.835-6.459l2.265,2.6V36.83a2.384,2.384,0,0,0-.933-1.9l.447-.11a2.037,2.037,0,0,1,1.5.212l2.908,1.7A4.292,4.292,0,0,1,65.015,38.4l4.962,9.054A18.2,18.2,0,0,1,71.7,51.9l1.011,4.163,3.042-.737Z" transform="translate(873 1316.372)" fill="#fff"/>
    <path id="Path_11" data-name="Path 11" d="M65.241,54.088l-.227-.376-4.57-7.486a1.213,1.213,0,0,1-.118-.98,1.188,1.188,0,0,1,.666-.729,1.17,1.17,0,0,1,1.356.314l3.583,4.123,1.936.894.807.368,1.309-2.854L67.867,46.4l-.016-.008-3.136-3.614a4.318,4.318,0,0,0-6.945,5.08l3.567,5.856,1.27,2.085.086.125C64.331,58.1,72.17,62.656,73.73,63.55l1.552-2.72C71.7,58.776,66.267,55.358,65.241,54.088Z" transform="translate(864.606 1314.651)" fill="#fff"/>
    <path id="Path_12" data-name="Path 12" d="M38.731,44.288a4.319,4.319,0,0,0-7.377-1.513l-3.136,3.614L28.2,46.4l-2.117.964L27.4,50.214l.807-.368,1.936-.894,3.582-4.123a1.17,1.17,0,0,1,1.356-.314,1.184,1.184,0,0,1,.549,1.709l-4.57,7.486-.227.376c-1.019,1.262-6.459,4.688-10.042,6.742l1.56,2.72c1.552-.894,9.4-5.448,11.03-7.627l1.348-2.211L38.3,47.855A4.327,4.327,0,0,0,38.731,44.288Z" transform="translate(871.079 1314.652)" fill="#fff"/>
  </g>
</svg>
