<svg xmlns="http://www.w3.org/2000/svg" xmlns:xlink="http://www.w3.org/1999/xlink" version="1.1" id="Capa_1" x="0px" y="0px" viewBox="0 0 468.103 468.103" style="enable-background:new 0 0 468.103 468.103;" xml:space="preserve">
<g>
	<g>
		<path d="M328.952,0.002h-33.8c-5.5-0.1-10,4.2-10.1,9.7c0,0,0,0,0,0.1v41.2h-102v-41.2c-0.1-5.5-4.6-9.8-10-9.8c0,0,0,0-0.1,0    h-33.8c-5.5-0.1-10,4.2-10.1,9.7v0.1v448.5c0.1,5.5,4.5,9.8,10,9.8h0.1h33.8c5.5,0.1,10-4.2,10.1-9.7c0,0,0,0,0-0.1v-41.3h102    v41.2c0.1,5.5,4.6,9.8,10,9.8c0,0,0,0,0.1,0h33.8c5.5,0.1,10-4.2,10.1-9.7v-0.1V9.702C338.952,4.302,334.552-0.098,328.952,0.002z     M163.052,448.002h-14v-428h14V448.002z M285.052,397.002h-102v-14h102V397.002z M285.052,363.002h-102v-50h102V363.002z     M285.052,293.002h-102v-14h102V293.002z M285.052,259.002h-102v-50h102V259.002z M285.052,189.002h-102v-14h102V189.002z     M285.052,155.002h-102v-50h102V155.002z M285.052,85.002h-102v-14h102V85.002z M319.052,448.002h-14v-428h14V448.002z" style="&#10;    fill: #a29ca2;&#10;"/>
	</g>
</g>
<g>
</g>
<g>
</g>
<g>
</g>
<g>
</g>
<g>
</g>
<g>
</g>
<g>
</g>
<g>
</g>
<g>
</g>
<g>
</g>
<g>
</g>
<g>
</g>
<g>
</g>
<g>
</g>
<g>
</g>
</svg>