<svg id="Capa_1" enable-background="new 0 0 512 512" height="512" viewBox="0 0 512 512" width="512" xmlns="http://www.w3.org/2000/svg"><g><path d="m91 512h330v-30h-30v-30h-270v30h-30z"/><path d="m91 270h36.271l21.429 152h92.3v-152h30v152h92.3l21.429-152h36.271v-30h-330z"/><circle cx="256" cy="60" r="60"/><path d="m166 210h180c0-49.629-40.371-90-90-90s-90 40.371-90 90z"/><path d="m406 210v-81.211l-34.395-34.394-21.21 21.21 25.605 25.606v68.789z"/><path d="m161.605 115.605-21.21-21.21-34.395 34.394v81.211h30v-68.789z"/></g></svg>