<svg xmlns="http://www.w3.org/2000/svg" width="16" height="16" viewBox="0 0 16 16">
  <path id="soccer-ball-o" d="M5.437,7.286,8,5.428l2.563,1.857-.973,3H6.42ZM8,0a7.822,7.822,0,0,1,3.107.634,7.859,7.859,0,0,1,4.259,4.259,7.933,7.933,0,0,1,0,6.214,7.859,7.859,0,0,1-4.259,4.259,7.933,7.933,0,0,1-6.214,0A7.859,7.859,0,0,1,.634,11.107a7.933,7.933,0,0,1,0-6.214A7.859,7.859,0,0,1,4.893.634,7.822,7.822,0,0,1,8,0Zm5.527,12.054A6.687,6.687,0,0,0,14.857,8V7.973l-.911.795-2.143-2,.563-2.884,1.2.107a6.719,6.719,0,0,0-3.473-2.518l.473,1.107L8,4,5.437,2.58l.473-1.107A6.722,6.722,0,0,0,2.437,3.991l1.205-.107L4.2,6.768l-2.143,2-.911-.795V8a6.688,6.688,0,0,0,1.33,4.054l.268-1.179,2.911.357,1.241,2.661-1.036.616a6.77,6.77,0,0,0,4.285,0l-1.036-.616,1.241-2.661,2.911-.357Z" fill="#fff"/>
</svg>
