<?xml version="1.0" encoding="UTF-8"?>
<svg width="30px" height="30px" viewBox="0 0 30 30" version="1.1" xmlns="http://www.w3.org/2000/svg" xmlns:xlink="http://www.w3.org/1999/xlink">
    <!-- Generator: Sketch 51.3 (57544) - http://www.bohemiancoding.com/sketch -->
    <title>cricket (5)</title>
    <desc>Created with Sketch.</desc>
    <defs></defs>
    <g id="Page-1" stroke="none" stroke-width="1" fill="none" fill-rule="evenodd">
        <g id="home_screen1" transform="translate(-31.000000, -335.000000)" fill="#FFFFFF" fill-rule="nonzero">
            <g id="Group" transform="translate(16.000000, 320.000000)">
                <g id="cricket-(5)" transform="translate(15.000000, 15.000000)">
                    <path d="M5.34691597,0.965379315 C5.32258065,0.68422379 5.18601944,0.424804718 4.9677104,0.245715726 C4.74892893,0.0642641129 4.46682835,-0.0222089516 4.18401901,0.00496156452 L0.99491244,0.304545726 C0.712811855,0.329826109 0.452447722,0.466387379 0.271468609,0.68422379 C0.0902533065,0.901823952 0.00354397984,1.18274323 0.0300056855,1.4646075 L0.180506552,3.05939704 L5.4978894,2.56135016 L5.34691597,0.965379315 Z" id="Shape"></path>
                    <path d="M7.8922001,29.812878 C7.99403038,29.7020697 8.04388234,29.5527501 8.02876137,29.402958 L7.49480214,23.7330677 C5.08537046,20.7303743 4.69529673,16.5808499 6.50343375,13.1817036 L5.60113724,3.62430696 L0.283754395,4.12259008 L2.67735635,29.5069147 C2.70358179,29.7819273 2.93512161,29.9914945 3.21107927,29.9903131 L7.49976375,29.9903131 C7.64979206,29.9898406 7.79249625,29.9253402 7.8922001,29.812878 Z" id="Shape"></path>
                    <path d="M12.2739731,8.48428052 C14.0164283,7.97323905 15.8678018,7.96733238 17.6133285,8.46774194 L17.6511309,3.82513234 L12.3120117,3.82513234 L12.2739731,8.48428052 Z" id="Shape"></path>
                    <path d="M13.7664598,22.6552262 C10.5175781,19.4297347 9.34853831,14.656943 10.7389585,10.2952527 C10.3278572,10.5279738 9.93707474,10.7947171 9.57015496,11.0924111 C9.4921875,11.3749842 9.41870903,11.6589749 9.3615329,11.9413118 C9.31073589,12.1898626 9.09242692,12.3682428 8.83867815,12.3684791 C8.80300216,12.3684791 8.76708986,12.3649351 8.73188637,12.3578471 C8.6260396,12.3346932 8.52987968,12.2786983 8.45758252,12.1976594 C6.31300403,14.7306578 5.83078694,18.2769973 7.22144341,21.2903226 C8.61209994,24.3038842 11.6232989,26.2381868 14.9421151,26.25 C14.926049,26.1417906 14.944714,26.0314548 14.9955109,25.934586 C15.0637916,25.8105469 15.1786164,25.7186398 15.3147051,25.6791835 C15.4507939,25.6399634 15.597042,25.6562658 15.7210811,25.7247826 C15.9719947,25.8634703 16.234249,25.9917622 16.4969758,26.1113124 C17.1412708,25.9967238 17.7702085,25.8074754 18.3710307,25.5473475 C16.6382624,24.9418 15.0642641,23.9530305 13.7664598,22.6552262 Z M8.21352067,16.7247354 C8.0953881,15.9904234 8.03584929,15.2476058 8.03584929,14.503607 C8.03584929,14.4091009 8.03584929,14.3153037 8.03584929,14.2217427 C8.05144282,13.9313728 8.28936175,13.7026682 8.58044038,13.6984155 C8.72196321,13.7012506 8.8568706,13.7603169 8.95492065,13.8626197 C9.05320694,13.9649225 9.10660282,14.1019563 9.10353139,14.2437154 L9.10353139,14.503607 C9.10400389,15.190666 9.1588174,15.8763073 9.26797192,16.5546245 C9.31475238,16.8454669 9.11699849,17.1195344 8.82591986,17.1663149 C8.79756804,17.1710402 8.76874367,17.1734029 8.73991935,17.1734029 C8.47837385,17.1729303 8.25533958,16.9832094 8.21352067,16.7247354 Z M10.6161007,21.629363 C10.5350618,21.6763798 10.4429183,21.7009513 10.3493574,21.7004788 C10.1582189,21.7009513 9.98125633,21.5991211 9.88580516,21.4334993 C9.46785218,20.7072203 9.11676224,19.9445565 8.83655177,19.1547221 C8.74228198,18.8780557 8.8880576,18.5768177 9.1635427,18.4790039 C9.43926411,18.3814264 9.74215597,18.523658 9.84304119,18.7979618 C10.1017515,19.5266035 10.4261435,20.2299647 10.8122007,20.89954 C10.8830803,21.0223979 10.9019815,21.1684098 10.8651241,21.3054435 C10.8280305,21.4422411 10.7382497,21.558956 10.6151556,21.629363 L10.6161007,21.629363 Z M13.8699439,25.1705047 C13.6825857,25.3980279 13.3463804,25.4308688 13.1186208,25.2435106 C12.7684759,24.9557396 12.4247102,24.6455235 12.1014995,24.3208953 C11.8347562,24.0567509 11.5767547,23.7748866 11.3305664,23.4849893 C11.1396642,23.2600649 11.1670709,22.9229146 11.3919953,22.7320124 C11.6169197,22.5411102 11.9538338,22.5685169 12.144736,22.7934413 C12.3722594,23.0604209 12.6115959,23.3214938 12.8561303,23.5655557 C13.1566596,23.866085 13.4732548,24.1529108 13.7967018,24.4198904 C14.0237525,24.6072486 14.0558846,24.9432176 13.8689989,25.1705047 L13.8699439,25.1705047 Z" id="Shape"></path>
                    <path d="M20.9931011,22.8414031 C21.2262947,22.8900737 21.4694116,22.9205519 21.7111107,22.9524477 C23.3633128,20.8345672 23.922316,18.0624685 23.2198998,15.4699313 C22.5174836,12.8771579 20.6356319,10.7663653 18.1401997,9.7719254 L18.1371283,9.7719254 C18.027265,9.76838141 17.921182,9.73010649 17.8344726,9.66253464 C16.9172915,9.33483496 15.9507308,9.16614163 14.976846,9.16448776 C14.7717679,9.16448776 14.5688162,9.17984504 14.3665732,9.1942572 C14.2597814,9.41162111 14.1529896,9.62898502 14.0610824,9.85107423 C13.9899666,10.0280368 13.8297789,10.1537298 13.641003,10.180664 C13.4519909,10.207362 13.2632151,10.1315209 13.1453188,9.98149258 C13.0276588,9.83122796 12.9990707,9.62969383 13.0701865,9.45273121 C13.0803459,9.42721458 13.0926317,9.402643 13.1032636,9.37689012 C12.7639869,9.45344002 12.4294355,9.55078125 12.1022083,9.66844125 C10.8455141,12.6744424 10.9619928,16.0785503 12.4206937,18.9916992 C13.8793945,21.9048481 16.535487,24.0373772 19.6950605,24.8319368 C20.1061618,24.5555066 20.4924553,24.2438728 20.8499244,23.9008159 C20.8248803,23.8953818 20.7965285,23.8939642 20.7731382,23.8885301 C20.5819997,23.8537991 20.4248834,23.7184192 20.3625094,23.5343687 C20.3003717,23.3505544 20.3426632,23.1473664 20.4735541,23.0037172 C20.6042087,22.860068 20.8026714,22.7988754 20.9914472,22.8435295 L20.9931011,22.8414031 Z M12.3070501,13.4994802 L12.3070501,13.4359249 C12.3068139,12.7656408 12.3687154,12.0970104 12.4918095,11.4385396 C12.5463867,11.1486423 12.8254158,10.9577401 13.1153131,11.012081 C13.4052104,11.066422 13.5961126,11.3456874 13.5415354,11.6353484 C13.4304908,12.2290827 13.3747322,12.831795 13.3749685,13.4359249 C13.3808751,13.7355091 13.1479177,13.9859501 12.8485698,14.0017799 L12.8410094,14.0017799 C12.7032668,14.007214 12.5690682,13.9571257 12.4686555,13.8626197 C12.3682428,13.7681136 12.3101216,13.6372228 12.3070501,13.4994802 Z M13.8134765,17.8141539 C13.5410629,17.9266161 13.2289567,17.797379 13.1160219,17.5252016 C12.8516413,16.8879946 12.6505796,16.226216 12.515436,15.5495527 C12.4582598,15.2608367 12.6456181,14.98039 12.934334,14.9227413 C13.2228138,14.8648564 13.503733,15.0515058 13.5623268,15.3397493 C13.6840033,15.9486045 13.8647461,16.5442288 14.1021925,17.1178805 C14.2141822,17.3898217 14.0849452,17.7012191 13.8134765,17.8141539 Z M16.1513199,20.9524634 C15.9417527,21.159668 15.6038936,21.1577779 15.3964529,20.9482107 C14.9111643,20.4581969 14.4738376,19.9228201 14.0903793,19.3496408 C13.9727193,19.1915795 13.9516917,18.9813036 14.0358021,18.8029234 C14.1199124,18.6247795 14.2954574,18.5071195 14.4922663,18.4974326 C14.6893114,18.4877457 14.8754883,18.5872133 14.976846,18.7563792 C15.3215568,19.2733273 15.7149382,19.7560169 16.1513199,20.1980689 C16.3594695,20.4064548 16.3594695,20.7440776 16.1513199,20.9524634 Z M19.4954165,22.981272 C19.4398942,23.1116904 19.3347562,23.2144657 19.2031565,23.2673891 C19.0717931,23.3200762 18.9245999,23.3184224 18.7944178,23.2626638 C18.1593372,22.9914315 17.5521358,22.6587702 16.9817918,22.2696415 C16.7632466,22.0950416 16.7167023,21.7812815 16.8747638,21.5506868 C17.0330614,21.320092 17.3423324,21.25063 17.5840316,21.3914441 C18.096727,21.7418252 18.6427356,22.0409369 19.2140247,22.2845262 C19.484312,22.4002961 19.610005,22.7128749 19.4954165,22.9833985 L19.4954165,22.981272 Z" id="Shape"></path>
                    <path d="M23.4519122,13.1795773 C25.261703,16.5799049 24.871393,20.7315556 22.459835,23.7351941 L21.9232769,29.402958 C21.9088646,29.5529864 21.9587166,29.7023059 22.0605469,29.8135868 C22.1621408,29.925104 22.3062626,29.9881868 22.4569997,29.987478 L26.7456842,29.987478 C27.0218782,29.9888955 27.2536542,29.7788558 27.2796434,29.5038432 L29.6708827,4.12306264 L24.3542087,3.62501577 L23.4519122,13.1795773 Z" id="Shape"></path>
                    <path d="M28.9587796,0.304545726 L25.769673,0.00543410081 C25.4875724,-0.0226814516 25.2059444,0.0628464919 24.9871629,0.243353105 C24.7686177,0.423859597 24.6313476,0.68422379 24.6055948,0.966560625 L24.4546213,2.56394909 L29.7712954,3.06223222 L29.922505,1.46626137 C29.9754284,0.881268871 29.5458985,0.363375726 28.9613785,0.307144657 L28.9587796,0.304545726 Z" id="Shape"></path>
                    <path d="M16.4152281,27.200022 C15.0434728,27.4206937 13.6398217,27.3311492 12.3070501,26.9382403 L12.3070501,29.453755 C12.3070501,29.7486139 12.5461505,29.987478 12.8410094,29.987478 L17.1124464,29.987478 C17.4073053,29.987478 17.6464056,29.7486139 17.6464056,29.453755 L17.6464056,26.9382403 C17.2936618,27.0381804 16.9354839,27.1178018 16.573762,27.1763955 C16.5234375,27.1922253 16.4709866,27.2002583 16.4182995,27.2004946 L16.4152281,27.200022 Z" id="Shape"></path>
                    <path d="M17.6721585,1.17730911 C17.6745212,0.894027218 17.5641853,0.621377298 17.3654864,0.419370605 C17.1667874,0.217600161 16.8960276,0.102775343 16.6127457,0.100412661 L13.409227,0.0753685887 L13.4000126,0.0753685887 C12.8138389,0.0753685887 12.3372921,0.547898831 12.3323305,1.13407258 L12.3200447,2.75721399 L17.659164,2.75721399 L17.6721585,1.17730911 Z" id="Shape"></path>
                </g>
            </g>
        </g>
    </g>
</svg>