<svg id="Layer_1" data-name="Layer 1" xmlns="http://www.w3.org/2000/svg" viewBox="0 0 100 100"><defs><style>.cls-1{fill:#fff;}.cls-2{fill:none;}</style></defs><path class="cls-1" d="M37.77,54a12.42,12.42,0,0,0,2.42,4.33l2.42-1.4C41.8,55.43,41,54,40.22,52.57Z"/><path class="cls-1" d="M52.47,40.27c0-.78,0-1.63,0-2.48,0-.16-.26-.44-.4-.44-1.37,0-2.75,0-4.13,0-.13,0-.37.22-.37.34,0,.91,0,1.82,0,2.59Z"/><path class="cls-1" d="M42.93,42.84l-2.45-1.42a12.31,12.31,0,0,0-2.56,4.26l2.41,1.39Z"/><path class="cls-1" d="M47.53,59.8c0,.77,0,1.64,0,2.52a.57.57,0,0,0,.37.4c1.38,0,2.75,0,4.13,0a.63.63,0,0,0,.4-.44c0-.85,0-1.7,0-2.48Z"/><path class="cls-1" d="M57.08,42.83l2.58,4.24,2.57-1.48-2.57-4.25Z"/><path class="cls-1" d="M50,42.07a8,8,0,1,0,8,8A8,8,0,0,0,50,42.07Zm-.08,15.15a7.22,7.22,0,1,1,7.29-7.17A7.25,7.25,0,0,1,49.93,57.22Z"/><path class="cls-1" d="M95,38.51c-4.25-4.42-9.6-6.91-15.43-8.39-2.71-.68-5.49-1.06-8.26-1.58-.28-1.8-.5-3.7-.88-5.56-1.25-6.24-3.57-12-7.87-16.8C59.47,2.7,55.69.34,50.91,0S42,1.64,38.51,5c-4.42,4.25-6.91,9.6-8.39,15.43-.68,2.71-1.06,5.49-1.58,8.26-1.8.28-3.7.5-5.56.88-6.24,1.25-12,3.57-16.8,7.87C2.69,40.53.33,44.31,0,49.09S1.64,58,5,61.49c4.25,4.42,9.6,6.91,15.43,8.39,2.71.68,5.49,1.06,8.26,1.58.28,1.8.5,3.7.88,5.56,1.25,6.24,3.57,12,7.87,16.8,3.13,3.48,6.91,5.84,11.69,6.15S58,98.36,61.49,95c4.42-4.25,6.91-9.6,8.39-15.43.68-2.71,1.06-5.49,1.58-8.26,1.8-.28,3.7-.5,5.56-.88,6.24-1.25,12-3.57,16.8-7.87,3.48-3.13,5.84-6.91,6.15-11.69S98.36,42,95,38.51Zm-54.78-23a17.27,17.27,0,0,1,4.14-5.49c3.79-3.22,7.91-3.07,11.51.4a21.81,21.81,0,0,1,5.67,9.71c.76,2.54,1.17,5.19,1.73,7.8a3,3,0,0,1,0,.6C53.22,29.68,44,32.49,37.2,41.14,37,39,36.62,37,36.52,35A38.24,38.24,0,0,1,40.26,15.54ZM15.62,59.77A17.37,17.37,0,0,1,10,55.58C6.85,51.83,7,47.7,10.39,44.15s7.71-5.34,12.34-6.5c1.9-.47,3.85-.74,5.81-1.11,1.14,10.26,4,19.5,12.38,26.37-2.6.21-5.19.57-7.79.61A36.74,36.74,0,0,1,15.62,59.77ZM59.73,84.46A17.27,17.27,0,0,1,55.59,90c-3.76,3.2-7.88,3.08-11.43-.33s-5.34-7.71-6.51-12.34c-.47-1.9-.74-3.85-1.11-5.82C46.79,70.33,56,67.5,62.8,58.87c.25,2.18.58,4.14.68,6.11A38.11,38.11,0,0,1,59.73,84.46Zm5.11-33.31a2.57,2.57,0,0,0-.11.44A14.78,14.78,0,0,1,54.25,64.21c-1.06.3-2.17.44-3.26.66H49a3.54,3.54,0,0,0-.44-.11A14.48,14.48,0,0,1,36,54.71a27.89,27.89,0,0,1-.81-3.42V48.91a2.18,2.18,0,0,0,.11-.44,14.74,14.74,0,0,1,11-12.75c.91-.24,1.84-.35,2.76-.52h2c.15,0,.29.09.44.11a14.48,14.48,0,0,1,12.6,10,29.68,29.68,0,0,1,.81,3.56Zm24.79,4.68a22.47,22.47,0,0,1-10.15,5.88c-2.6.78-5.29,1.24-8,1.86C70.33,53.23,67.52,44,59,37.29a41.05,41.05,0,0,1,10.43-.8,36.82,36.82,0,0,1,15,3.76A17.42,17.42,0,0,1,90,44.47C93.14,48.2,93,52.29,89.63,55.83Z"/><path class="cls-1" d="M57.38,56.91l2.43,1.41A12.52,12.52,0,0,0,62.23,54l-2.46-1.42C59,54,58.19,55.44,57.38,56.91Z"/><path class="cls-2" d="M51.2,54.33a1.63,1.63,0,0,0-.29.1Z"/><path d="M51.32,54.29l-.12,0Z"/><path class="cls-1" d="M51.3,49.15a12.26,12.26,0,0,1-1.73-.79,1.07,1.07,0,0,1-.47-.81,1,1,0,0,1,.72-.62,7.37,7.37,0,0,1,1.75.09c.6.09,1-.09,1.13-.58A.9.9,0,0,0,52,45.36c-.4-.09-.81-.14-1.23-.22a8.33,8.33,0,0,0-1.48.15,3.26,3.26,0,0,0-2.11,1.37,2.35,2.35,0,0,0,1,3.4c.69.38,1.45.62,2.17.95A.93.93,0,0,1,50,52.83a8.52,8.52,0,0,1-1.81-.21c-.69-.14-1.1,0-1.24.49a1,1,0,0,0,.81,1.22c.48.12,1,.19,1.48.29a3.64,3.64,0,0,0,1.7-.19,1.63,1.63,0,0,1,.29-.1l.12,0a2.62,2.62,0,0,0,1.93-2.12C53.48,50.75,52.86,49.81,51.3,49.15Z"/></svg>