<?xml version="1.0" encoding="UTF-8"?>
<svg width="100px" height="32px" viewBox="0 0 100 32" version="1.1" xmlns="http://www.w3.org/2000/svg" xmlns:xlink="http://www.w3.org/1999/xlink">
    <!-- Generator: Sketch 51.3 (57544) - http://www.bohemiancoding.com/sketch -->
    <title>betfair</title>
    <desc>Created with Sketch.</desc>
    <defs></defs>
    <g id="Red-Game" stroke="none" stroke-width="1" fill="none" fill-rule="evenodd">
        <g id="final-login1.1" transform="translate(-240.000000, -643.000000)" fill-rule="nonzero">
            <g id="Group-7" transform="translate(35.000000, 639.000000)">
                <g id="betfair" transform="translate(205.000000, 4.000000)">
                    <g id="Group-6" transform="translate(0.000000, 14.000000)">
                        <path d="M27.2155833,9.86775652 C27.2155833,7.05117248 29.022082,7.01232304 31.4501717,7.01232304 L31.7221178,7.01232304 C34.0919333,7.01232304 35.3933894,7.40081739 35.3933894,10.1397026 L35.3933894,12.0433249 C35.3933894,14.3160168 34.8106479,15.2872527 31.6444189,15.2872527 L31.0422526,15.2872527 C28.0508461,15.2872527 27.235008,14.4519899 27.235008,12.1792979 L27.235008,9.86775652 L27.2155833,9.86775652 Z M27.2155833,15.9088437 L27.2544327,15.9088437 C27.992572,16.8995043 29.3717269,17.4045469 31.0616774,17.4045469 L31.9357897,17.4045469 C35.4516635,17.4045469 38.035151,16.5110099 38.035151,12.451244 L38.035151,9.96488011 C38.035151,6.21590962 36.38405,4.87560411 32.052338,4.87560411 L30.7120324,4.87560411 C28.8278348,4.87560411 27.7594754,5.51661979 27.2738574,6.21590962 L27.2155833,6.21590962 L27.2155833,0.194247176 L24.5738217,0.194247176 L24.5738217,17.0160526 L27.2155833,17.0160526 L27.2155833,15.9088437 Z" id="path14" fill="#FFFFFF"></path>
                        <path d="M70.1636338,5.16697487 L66.6089105,5.16697487 L66.6089105,4.07919069 C66.6089105,3.04968066 67.2887756,2.2144178 68.7262047,2.2144178 L71.3679663,2.2144178 L71.3679663,0.194247176 L67.8520924,0.194247176 C65.7347982,0.194247176 63.9477242,1.30145608 63.9477242,4.09861541 L63.9477242,5.16697487 L62.5297198,5.16697487 L62.5297198,7.3036938 L63.9477242,7.3036938 L63.9477242,17.4045469 L66.6089105,17.4045469 L66.6089105,7.3036938 L70.1636338,7.3036938 L70.1636338,5.16697487" id="path16" fill="#FFFFFF"></path>
                        <path d="M54.8569564,13.5001787 C54.8569564,16.297338 56.6440304,17.4045469 58.7613246,17.4045469 L62.0441019,17.4045469 L62.0441019,15.267828 L59.4023403,15.267828 C57.9649112,15.267828 57.498718,14.5491135 57.498718,13.5001787 L57.498718,7.28426909 L61.0534413,7.28426909 L61.0534413,5.14755015 L57.498718,5.14755015 L57.498718,0.194247176 L54.8569564,0.194247176 L54.8569564,5.16697487 L53.438952,5.16697487 L53.438952,7.3036938 L54.8569564,7.3036938 L54.8569564,13.5001787" id="path18" fill="#FFFFFF"></path>
                        <polyline id="path20" fill="#FFFFFF" points="85.3731877 2.70003574 88.0149493 2.70003574 88.0149493 0 85.3731877 0 85.3731877 2.70003574"></polyline>
                        <polyline id="path22" fill="#FFFFFF" points="85.3731877 17.4045469 88.0149493 17.4045469 88.0149493 4.87560411 85.3731877 4.87560411 85.3731877 17.4045469"></polyline>
                        <path d="M42.0172181,9.65408463 C42.0172181,7.24541965 43.1438517,7.01232304 45.8633121,7.01232304 L46.4072042,7.01232304 C49.4957343,6.99289832 49.8842287,7.76988703 49.8842287,9.36271387 L49.8842287,10.042579 L42.0172181,10.042579 L42.0172181,9.65408463 Z M44.911501,17.4045469 L47.3007412,17.4045469 C50.5058196,17.4045469 51.9820982,16.3944616 52.3511678,14.6073876 L50.000777,13.8886731 C49.6122826,14.995882 48.6604715,15.267828 46.5820267,15.267828 L45.9604357,15.267828 C42.5611102,15.267828 42.0172181,14.8404842 42.0172181,12.1598732 L52.545415,12.1598732 L52.545415,9.84833181 C52.545415,5.65259281 50.3698466,4.87560411 46.8928222,4.87560411 L45.5913661,4.87560411 C42.8330562,4.87560411 39.4920048,5.36122205 39.4920048,9.63465991 L39.4920048,12.587217 C39.4920048,16.7246818 42.3862877,17.4045469 44.911501,17.4045469 Z" id="path24" fill="#FFFFFF"></path>
                        <path d="M80.3810353,13.6555764 C80.3810353,14.8404842 79.5651971,15.267828 76.4378176,15.267828 L75.719103,15.267828 C73.0579167,15.267828 72.7082718,14.7433606 72.7082718,13.7332753 L72.7082718,13.0728349 C72.7082718,11.8879271 73.3687122,11.4605834 75.58313,11.4605834 L76.7680378,11.4605834 C78.7882084,11.4605834 80.3810353,11.8490777 80.3810353,13.1699585 L80.3810353,13.6555764 Z M77.0788333,4.87560411 L76.0881727,4.87560411 C72.4945999,4.87560411 70.9406225,5.98281301 70.8434989,7.633914 L73.3687122,8.46917686 C73.4852605,7.34254324 74.7867166,7.01232304 76.7486131,7.01232304 C79.6817454,7.01232304 80.3810353,7.1871455 80.3810353,9.30443971 L80.3810353,10.450498 L80.3227611,10.450498 C79.6623207,9.55696104 78.749359,9.34328915 76.4572423,9.34328915 L75.4277323,9.34328915 C72.0478314,9.34328915 70.0665102,10.178552 70.0665102,12.859163 L70.0665102,13.616727 C70.0665102,15.8311448 70.9017731,17.4045469 74.4370717,17.4045469 L77.0011344,17.4045469 C79.5651971,17.4045469 79.8177185,16.9772032 80.3227611,16.2584886 L80.3616105,16.2584886 L80.3616105,17.4045469 L83.0034926,17.4045469 L83.0033721,9.34328915 C83.0227968,5.82741527 80.6918307,4.87560411 77.0788333,4.87560411 Z" id="path26" fill="#FFFFFF"></path>
                        <path d="M96.1150565,4.87560411 C94.9301487,4.87560411 93.7452409,5.32237261 92.987677,6.54612982 L92.8905534,6.54612982 L92.8905534,4.87560411 L90.3847648,4.87560411 L90.3847648,17.4045469 L93.0459511,17.4045469 L93.0459511,9.86775652 C93.0459511,8.35262855 93.9200634,7.01232304 95.9790835,7.01232304 C97.455362,7.01232304 98.1546518,7.42024211 98.3100496,7.82816118 L99.9805753,6.70152756 C99.5532315,5.55546922 98.4460226,4.87560411 96.1150565,4.87560411" id="path28" fill="#FFFFFF"></path>
                        <polyline id="path30" fill="#FF6400" points="19.6982176 0.233096611 12.8412923 0.233096611 12.8412923 3.69069634 9.17002067 3.69069634 16.2600426 11.9850507 23.3500645 3.69069634 19.6787929 3.69069634 19.6787929 0.233096611"></polyline>
                        <polyline id="path32" fill="#FF6400" points="0.118102283 13.8886731 3.7893739 13.8886731 3.7893739 17.3268481 10.6462992 17.3268481 10.6462992 13.8886731 14.3175708 13.8886731 7.22754891 5.59431866 0.118102283 13.8886731"></polyline>
                    </g>
                    <g id="Group-5" fill="#FFFFFF">
                        <path d="M1.76618372,6.67810121 L1.76618372,10.0177941 L0,10.0177941 L0,0.528570619 L3.09884962,0.528570619 C3.66081717,0.512514403 4.2067285,0.592795482 4.75263983,0.753357638 C5.17010144,0.881807363 5.57150683,1.09053817 5.90868736,1.37955005 C6.21375545,1.6364495 6.43854247,1.97363003 6.58304841,2.34292299 C6.8720603,3.14573377 6.8720603,4.02882563 6.5669922,4.83163641 C6.42248626,5.21698559 6.18164302,5.55416612 5.87657493,5.82712178 C5.5393944,6.11613366 5.15404522,6.34092068 4.7205274,6.46937041 C4.19067228,6.62993256 3.64476095,6.71021364 3.09884962,6.69415743 L1.76618372,6.67810121 Z M1.76618372,5.29726667 L3.09884962,5.29726667 C3.3878615,5.29726667 3.67687338,5.26515423 3.94982905,5.16881694 C4.17461607,5.10459208 4.38334687,4.97614235 4.54390903,4.8155802 C4.70447118,4.65501804 4.83292091,4.47839967 4.89714577,4.26966886 C4.97742685,4.02882563 5.0255955,3.78798239 5.00953928,3.54713916 C5.00953928,3.32235214 4.97742685,3.08150891 4.89714577,2.8727781 C4.81686469,2.68010352 4.70447118,2.48742893 4.54390903,2.34292299 C4.36729066,2.18236083 4.17461607,2.06996732 3.94982905,2.00574246 C3.67687338,1.92546138 3.3878615,1.87729273 3.09884962,1.89334895 L1.76618372,1.89334895 L1.76618372,5.29726667 Z" id="Shape"></path>
                        <path d="M10.7416083,3.1778462 C11.2072385,3.1778462 11.6728688,3.25812728 12.1063866,3.41868944 C12.507792,3.56319538 12.8610287,3.80403861 13.1500406,4.10910671 C13.4551087,4.4141748 13.6798957,4.79952398 13.8244017,5.20092937 C13.9849638,5.66655963 14.0652449,6.14824609 14.0652449,6.64598878 C14.0652449,7.14373146 13.9849638,7.62541793 13.8244017,8.09104819 C13.6798957,8.49245358 13.4551087,8.87780275 13.1500406,9.18287085 C12.8610287,9.48793895 12.4917358,9.72878218 12.1063866,9.87328812 C11.2232947,10.1944124 10.2438656,10.1944124 9.36077372,9.87328812 C8.95936833,9.71272597 8.60613159,9.48793895 8.30106349,9.18287085 C7.99599539,8.86174654 7.77120837,8.49245358 7.62670243,8.09104819 C7.46614027,7.62541793 7.3858592,7.14373146 7.3858592,6.64598878 C7.3858592,6.14824609 7.46614027,5.66655963 7.62670243,5.20092937 C7.77120837,4.79952398 7.99599539,4.43023102 8.30106349,4.10910671 C8.60613159,3.80403861 8.95936833,3.57925159 9.36077372,3.41868944 C9.81034776,3.25812728 10.2599218,3.16178998 10.7416083,3.1778462 Z M10.7416083,8.86174654 C11.3035758,8.86174654 11.7210374,8.66907195 11.9939931,8.29977899 C12.2669488,7.93048603 12.3953985,7.36851848 12.3953985,6.64598878 C12.3953985,5.92345908 12.2669488,5.36149153 11.9939931,4.99219857 C11.7210374,4.60684939 11.3035758,4.4141748 10.7416083,4.4141748 C10.1796407,4.4141748 9.7461229,4.60684939 9.48922345,4.99219857 C9.21626778,5.37754774 9.08781805,5.92345908 9.08781805,6.64598878 C9.08781805,7.36851848 9.21626778,7.91442982 9.48922345,8.29977899 C9.7461229,8.66907195 10.1635845,8.86174654 10.7416083,8.86174654 Z" id="Shape"></path>
                        <path d="M14.4987627,3.27418349 L15.78326,3.27418349 C15.8956535,3.27418349 15.9919908,3.30629593 16.0883281,3.35446457 C16.1686092,3.40263322 16.2167778,3.4829143 16.2488902,3.56319538 L17.2122632,7.15978768 C17.2604318,7.35246227 17.3086005,7.54513686 17.3407129,7.73781144 C17.3728253,7.93048603 17.4049378,8.1071044 17.4370502,8.29977899 C17.4852188,8.1071044 17.5333875,7.93048603 17.5976123,7.73781144 C17.6618372,7.54513686 17.7100059,7.35246227 17.7742307,7.15978768 L18.8981658,3.54713916 C18.9302782,3.45080187 18.9784469,3.386577 19.058728,3.33840836 C19.139009,3.29023971 19.2192901,3.25812728 19.3156274,3.25812728 L20.0381571,3.25812728 C20.1505506,3.25812728 20.2468879,3.29023971 20.327169,3.33840836 C20.4074501,3.386577 20.4556187,3.46685808 20.4877312,3.54713916 L21.59561,7.22401254 C21.6598349,7.41668713 21.7080036,7.5933055 21.7561722,7.76992387 C21.8043408,7.94654225 21.8525095,8.12316062 21.8846219,8.29977899 C21.9167344,8.1071044 21.9488468,7.93048603 21.9809592,7.73781144 C22.0130716,7.54513686 22.0612403,7.35246227 22.1254652,7.15978768 L23.1209505,3.56319538 C23.1370067,3.46685808 23.2012316,3.40263322 23.2815127,3.35446457 C23.3617938,3.29023971 23.4741873,3.27418349 23.5705246,3.27418349 L24.790797,3.27418349 L22.6553203,10.0177941 L21.3547668,10.0177941 C21.2102609,10.0177941 21.1139236,9.92145677 21.0496987,9.72878218 L19.8454825,5.843178 C19.8133701,5.71472827 19.7652015,5.58627855 19.733089,5.45782882 C19.7009766,5.3293791 19.6688642,5.20092937 19.6528079,5.07247965 C19.6206955,5.20092937 19.6046393,5.3293791 19.5725269,5.45782882 C19.5404144,5.58627855 19.508302,5.71472827 19.4761896,5.843178 L18.2559172,9.72878218 C18.2238048,9.90540056 18.0792988,10.0177941 17.9026804,10.0177941 L16.6663518,10.0177941 L14.4987627,3.27418349 Z" id="Shape"></path>
                        <path d="M28.4997828,3.1778462 C28.9011882,3.1778462 29.3025936,3.24207106 29.6718865,3.386577 C30.0251233,3.51502673 30.3301914,3.72375753 30.603147,3.98065698 C30.8761027,4.25361265 31.0687773,4.59079318 31.2132832,4.94402992 C31.3577892,5.36149153 31.4380702,5.79500935 31.4380702,6.24458339 C31.4380702,6.34092068 31.4380702,6.45331419 31.422014,6.54965149 C31.422014,6.61387635 31.3899016,6.67810121 31.3577892,6.74232607 C31.3256767,6.79049472 31.2935643,6.82260715 31.2453956,6.83866337 C31.1811708,6.85471958 31.1169459,6.8707758 31.0687773,6.8707758 L26.8941612,6.8707758 C26.9423299,7.56119307 27.1350044,8.07499197 27.4561288,8.39611628 C27.7933093,8.73329681 28.2589395,8.89385897 28.740626,8.87780275 C28.965413,8.87780275 29.2062563,8.84569032 29.4149871,8.78146546 C29.5916054,8.73329681 29.7521676,8.65301574 29.9127297,8.57273466 C30.0572357,8.49245358 30.1856854,8.42822872 30.2820227,8.36400385 C30.37836,8.29977899 30.4907535,8.26766656 30.5870908,8.26766656 C30.6513157,8.26766656 30.6994843,8.28372278 30.7637092,8.29977899 C30.8118778,8.33189142 30.8600465,8.36400385 30.8921589,8.4121725 L31.3577892,9.00625248 C31.1811708,9.21498328 30.9884962,9.39160165 30.747653,9.5361076 C30.5228659,9.68061354 30.2980789,9.79300705 30.0411795,9.87328812 C29.8003362,9.9535692 29.559493,10.0177941 29.3025936,10.0499065 C29.0617503,10.0820189 28.8209071,10.0980751 28.5640076,10.0980751 C28.1144336,10.0980751 27.6809158,10.0177941 27.2634542,9.87328812 C26.8620488,9.72878218 26.508812,9.48793895 26.2198001,9.18287085 C25.9147321,8.86174654 25.6738888,8.47639736 25.5133267,8.05893576 C25.3367083,7.56119307 25.2564272,7.03133796 25.2724834,6.48542662 C25.2724834,6.03585259 25.3527645,5.60233476 25.4972704,5.18487316 C25.6417764,4.79952398 25.8505072,4.43023102 26.1395191,4.12516292 C26.428531,3.82009483 26.7657115,3.57925159 27.1510607,3.41868944 C27.5685223,3.25812728 28.0341525,3.16178998 28.4997828,3.1778462 Z M28.5318952,4.33389373 C28.1304898,4.31783751 27.7290844,4.46234345 27.4240163,4.73529912 C27.1350044,5.05642343 26.9583861,5.44177261 26.9102174,5.87529043 L29.9608984,5.87529043 C29.9608984,5.66655963 29.928786,5.47388504 29.8806173,5.28121045 C29.8163925,5.10459208 29.7361114,4.94402992 29.6076616,4.79952398 C29.4792119,4.65501804 29.334706,4.54262453 29.1580876,4.46234345 C28.9493568,4.38206237 28.740626,4.33389373 28.5318952,4.33389373 Z" id="Shape"></path>
                        <path d="M32.7225675,10.0177941 L32.7225675,3.27418349 L33.6698842,3.27418349 C33.7983339,3.25812728 33.9107274,3.29023971 34.023121,3.37052079 C34.103402,3.46685808 34.1515707,3.57925159 34.1515707,3.6916451 L34.247908,4.5105121 C34.4566388,4.12516292 34.7456507,3.78798239 35.0988874,3.51502673 C35.4200117,3.27418349 35.7893047,3.14573377 36.1907101,3.16178998 C36.4797219,3.14573377 36.7687338,3.22601485 37.0256333,3.386577 L36.8169025,4.60684939 C36.8169025,4.67107426 36.78479,4.7192429 36.7366214,4.76741155 C36.6884527,4.79952398 36.6242279,4.8155802 36.560003,4.8155802 C36.4636657,4.8155802 36.3833847,4.79952398 36.2870474,4.76741155 C36.1425414,4.73529912 35.9819793,4.7192429 35.8374733,4.7192429 C35.5324052,4.70318669 35.2112809,4.8155802 34.9704377,4.99219857 C34.697482,5.21698559 34.4887512,5.48994125 34.3603015,5.81106557 L34.3603015,10.0177941 L32.7225675,10.0177941 Z" id="Shape"></path>
                        <path d="M40.879125,3.1778462 C41.2805304,3.1778462 41.6819358,3.24207106 42.0512288,3.386577 C42.4044655,3.51502673 42.7095336,3.72375753 42.9824893,3.98065698 C43.2554449,4.25361265 43.4481195,4.59079318 43.5926255,4.94402992 C43.7371314,5.36149153 43.8174125,5.79500935 43.8174125,6.24458339 C43.8174125,6.34092068 43.8174125,6.45331419 43.8013563,6.54965149 C43.8013563,6.61387635 43.7692438,6.67810121 43.7371314,6.74232607 C43.705019,6.79049472 43.6729066,6.82260715 43.6247379,6.83866337 C43.560513,6.85471958 43.4962882,6.8707758 43.4481195,6.8707758 L39.2895597,6.8707758 C39.3377283,7.56119307 39.5304029,8.07499197 39.8515272,8.39611628 C40.1887078,8.73329681 40.654338,8.89385897 41.1360245,8.87780275 C41.3608115,8.87780275 41.6016547,8.84569032 41.8103855,8.78146546 C41.9870039,8.73329681 42.1475661,8.65301574 42.3081282,8.57273466 C42.4526342,8.49245358 42.5810839,8.42822872 42.6774212,8.36400385 C42.7737585,8.29977899 42.886152,8.26766656 42.9824893,8.26766656 C43.0467141,8.26766656 43.0948828,8.28372278 43.1591077,8.29977899 C43.2072763,8.33189142 43.2554449,8.36400385 43.2875574,8.4121725 L43.7531876,9.00625248 C43.5765693,9.21498328 43.3838947,9.39160165 43.1430514,9.5361076 C42.9182644,9.68061354 42.6934774,9.79300705 42.4365779,9.87328812 C42.1957347,9.9535692 41.9548915,10.0177941 41.697992,10.0499065 C41.4571488,10.0820189 41.2163056,10.0980751 40.9594061,10.0980751 C40.5098321,10.0980751 40.0763142,10.0177941 39.6588526,9.87328812 C39.2574473,9.72878218 38.9042105,9.48793895 38.6151986,9.18287085 C38.3101305,8.86174654 38.0692873,8.47639736 37.9087251,8.05893576 C37.7321068,7.56119307 37.6357695,7.03133796 37.6518257,6.50148284 C37.6518257,6.0519088 37.7321068,5.61839098 37.8766127,5.20092937 C38.0211186,4.8155802 38.2298494,4.44628724 38.5188613,4.14121914 C38.8078732,3.83615104 39.1450537,3.59530781 39.5304029,3.43474565 C39.9478645,3.25812728 40.4134948,3.16178998 40.879125,3.1778462 Z M40.9112375,4.33389373 C40.5098321,4.31783751 40.1084267,4.46234345 39.8033586,4.73529912 C39.5143467,5.05642343 39.3377283,5.44177261 39.2895597,5.87529043 L42.3402407,5.87529043 C42.3402407,5.66655963 42.3081282,5.47388504 42.2599596,5.28121045 C42.2117909,5.10459208 42.1154536,4.94402992 42.0030601,4.79952398 C41.8746104,4.65501804 41.7301045,4.54262453 41.5534861,4.46234345 C41.3447553,4.38206237 41.1199683,4.33389373 40.9112375,4.33389373 Z" id="Shape"></path>
                        <path d="M49.8545496,10.0177941 C49.661875,10.0338503 49.4852566,9.90540056 49.437088,9.72878218 L49.3086382,9.08653356 C49.1801885,9.2310395 49.0196264,9.37554544 48.8590642,9.50399516 C48.698502,9.63244489 48.5379399,9.72878218 48.3613215,9.82511948 C48.1847031,9.92145677 47.9920286,9.98568163 47.7832978,10.0338503 C47.574567,10.0820189 47.3497799,10.1141314 47.1249929,10.1141314 C46.4185194,10.1301876 45.7441584,9.79300705 45.3266968,9.2310395 C45.0858535,8.90991519 44.9092352,8.54062223 44.8128979,8.15527305 C44.6844481,7.67358658 44.6202233,7.1758439 44.6362795,6.67810121 C44.6362795,6.21247096 44.7005044,5.73078449 44.8450103,5.28121045 C44.97346,4.87980506 45.1661346,4.49445588 45.4230341,4.15727535 C45.6638773,3.85220726 45.9850016,3.59530781 46.3382383,3.41868944 C46.7075313,3.24207106 47.1249929,3.14573377 47.5263983,3.14573377 C47.8635788,3.12967755 48.1847031,3.19390242 48.4897712,3.32235214 C48.7466707,3.43474565 49.0035701,3.61136402 49.212301,3.80403861 L49.212301,0.255614953 L50.8339787,0.255614953 L50.8339787,10.0177941 L49.8545496,10.0177941 Z M47.6869605,8.82963411 C47.9920286,8.82963411 48.2810404,8.76540924 48.5379399,8.6209033 C48.7948393,8.46034115 49.0196264,8.26766656 49.212301,8.02682332 L49.212301,5.00825478 C49.0517388,4.79952398 48.843008,4.63896182 48.618221,4.54262453 C48.393434,4.44628724 48.1525907,4.39811859 47.9117475,4.39811859 C47.6869605,4.39811859 47.4621734,4.44628724 47.2534426,4.54262453 C47.0447118,4.63896182 46.8841497,4.78346776 46.7557,4.96008614 C46.611194,5.16881694 46.4988005,5.40966017 46.4345756,5.66655963 C46.3542946,6.00374015 46.3221821,6.34092068 46.3221821,6.67810121 C46.3221821,7.01528174 46.3542946,7.35246227 46.4185194,7.67358658 C46.4666881,7.91442982 46.5630254,8.13921683 46.6914751,8.34794764 C46.8038686,8.50850979 46.9483745,8.63695952 47.1249929,8.7172406 C47.2855551,8.79752168 47.4942859,8.82963411 47.6869605,8.82963411 Z" id="Shape"></path>
                        <path d="M55.1531007,10.0177941 L55.1531007,0.255614953 L56.7747785,0.255614953 L56.7747785,4.10910671 C57.031678,3.83615104 57.3367461,3.59530781 57.6739266,3.43474565 C58.0432196,3.25812728 58.4446249,3.1778462 58.8620866,3.1778462 C59.56856,3.16178998 60.2429211,3.49897051 60.6603827,4.06093806 C60.9012259,4.38206237 61.0778443,4.75135533 61.1741816,5.13670451 C61.3026313,5.61839098 61.3668562,6.10007745 61.3508,6.59782013 C61.3508,7.0795066 61.2865751,7.54513686 61.1420692,7.99471089 C61.0136194,8.39611628 60.8209449,8.78146546 60.5640454,9.11864599 C60.3232022,9.42371409 60.0020779,9.68061354 59.6488411,9.85723191 C59.2795482,10.0338503 58.8620866,10.1301876 58.4446249,10.1301876 C58.2519504,10.1301876 58.0592758,10.1141314 57.8826574,10.0659627 C57.5615331,9.98568163 57.2725212,9.82511948 57.031678,9.60033246 C56.9032282,9.48793895 56.7908347,9.37554544 56.6944974,9.24709571 L56.6142164,9.69666975 C56.5981601,9.79300705 56.5499915,9.87328812 56.4857666,9.93751299 C56.4054856,9.98568163 56.3252045,10.0177941 56.2288672,10.0017378 L55.1531007,10.0177941 Z M58.300119,4.43023102 C57.9950509,4.4141748 57.706039,4.49445588 57.4330834,4.63896182 C57.1761839,4.79952398 56.9513969,5.00825478 56.7747785,5.2330418 L56.7747785,8.25161034 C56.9353407,8.46034115 57.1440715,8.6209033 57.3688585,8.73329681 C57.5936455,8.82963411 57.8344888,8.87780275 58.075332,8.86174654 C58.300119,8.86174654 58.524906,8.81357789 58.7336368,8.7172406 C58.9423676,8.6209033 59.1029298,8.47639736 59.2313795,8.29977899 C59.3758855,8.09104819 59.488279,7.85020495 59.5525038,7.5933055 C59.6327849,7.25612497 59.6648973,6.91894445 59.6648973,6.58176392 C59.6648973,6.24458339 59.6327849,5.90740286 59.56856,5.58627855 C59.5203914,5.34543531 59.4240541,5.12064829 59.2956044,4.91191749 C59.1832109,4.75135533 59.0387049,4.62290561 58.8620866,4.54262453 C58.7015244,4.47839967 58.4927936,4.43023102 58.300119,4.43023102 Z" id="Shape"></path>
                        <path d="M64.5706513,11.9274095 C64.5407007,12.0065239 64.4807994,12.0856383 64.3909475,12.1383812 C64.2861202,12.1911241 64.181293,12.2174956 64.0614904,12.2174956 L62.9383413,12.2174956 L64.1213917,10.0022923 L61.575587,4.88622754 L62.9083906,4.88622754 C63.0132179,4.88622754 63.1030698,4.91259901 63.1929217,4.96534195 C63.252823,5.01808488 63.3127243,5.07082782 63.342675,5.13675649 L64.6904539,8.01124649 C64.7353799,8.10354662 64.7803058,8.20903249 64.8102565,8.30133263 C64.8402071,8.4068185 64.8701578,8.49911864 64.9001084,8.60460451 C64.9300591,8.49911864 64.974985,8.39363277 65.0049357,8.30133263 C65.0498616,8.20903249 65.0798123,8.10354662 65.1247382,8.01124649 L66.3826653,5.14994222 C66.4126159,5.08401355 66.4725172,5.01808488 66.5473938,4.97852768 C66.6222704,4.92578475 66.7121223,4.91259901 66.8019743,4.91259901 L68,4.91259901 L64.5706513,11.9274095 Z" id="Shape"></path>
                    </g>
                </g>
            </g>
        </g>
    </g>
</svg>