<?xml version="1.0" encoding="UTF-8"?>
<svg width="353px" height="177px" viewBox="0 0 353 177" version="1.1" xmlns="http://www.w3.org/2000/svg" xmlns:xlink="http://www.w3.org/1999/xlink">
    <!-- Generator: Sketch 64 (93537) - https://sketch.com -->
    <title>icon2</title>
    <desc>Created with Sketch.</desc>
    <g id="Page-1" stroke="none" stroke-width="1" fill="none" fill-rule="evenodd">
        <g id="Artboard-Copy" transform="translate(-89.000000, -57.000000)" fill="#E64C3C" fill-rule="nonzero">
            <g id="icon2" transform="translate(89.000000, 57.000000)">
                <g id="diamond" transform="translate(0.000000, 0.000000)">
                    <path d="M60.6272727,0 C61.1181818,0.572727273 61.4454545,0.940909091 61.7318182,1.35 C82.3772727,28.8681818 103.022727,56.3863636 123.668182,83.9045455 C124.484338,84.732712 124.484338,86.0627425 123.668182,86.8909091 C103.95,116.4 84.3,145.922727 64.7181818,175.459091 L63.6954545,176.85 C63.2454545,176.236364 62.8363636,175.745455 62.5090909,175.254545 C41.8909091,145.690909 21.2590909,116.25 0.613636364,86.9318182 C-0.166692006,86.0735839 -0.166692006,84.7627797 0.613636364,83.9045455 C20.3863636,56.2772727 40.1318182,28.6227273 59.85,0.940909091 L60.6272727,0 Z" id="Path"></path>
                </g>
                <g id="hearts" transform="translate(167.000000, 0.000000)">
                    <path d="M185.7,54 L185.7,59.0571429 C185.535366,59.6198553 185.406537,60.19243 185.314286,60.7714286 C185.026994,66.3815367 183.840453,71.9090821 181.8,77.1428571 C176.905285,89.072071 170.402178,100.275872 162.471429,110.442857 C142.994428,135.421733 119.880017,157.337084 93.9,175.457143 C92.8714286,176.228571 92.2285714,175.929817 91.3714286,175.457143 C77.0857462,165.083693 63.5519526,153.712442 50.8714286,141.428571 C34.0242848,125.728048 19.7500451,107.47669 8.57142857,87.3428571 C1.23776098,74.7600147 -1.44684073,60.0022889 0.985714286,45.6428571 C3.48949765,29.0830644 13.5236634,14.6174059 28.1571429,6.47142857 C37.8894363,0.607345806 49.4868169,-1.33831779 60.6,1.02857143 C72.4102866,3.8987441 82.9506415,10.569283 90.6,20.0142857 L92.7,22.5 C93.1714286,21.9857143 93.5142857,21.6428571 93.8142857,21.2571429 C98.0450523,16.0371845 103.079413,11.5236199 108.728571,7.88571429 C118.418575,1.24233825 130.348375,-1.28542303 141.9,0.857142857 C164.171814,5.27769996 181.299101,23.158588 184.757143,45.6 C185.014286,48.3857143 185.314286,51.1714286 185.7,54 Z" id="Path"></path>
                </g>
            </g>
        </g>
    </g>
</svg>