<?xml version="1.0" encoding="UTF-8"?>
<svg width="403px" height="180px" viewBox="0 0 403 180" version="1.1" xmlns="http://www.w3.org/2000/svg" xmlns:xlink="http://www.w3.org/1999/xlink">
    <!-- Generator: Sketch 64 (93537) - https://sketch.com -->
    <title>icon1</title>
    <desc>Created with Sketch.</desc>
    <g id="Page-1" stroke="none" stroke-width="1" fill="none" fill-rule="evenodd">
        <g id="Artboard" transform="translate(-65.000000, -57.000000)" fill="#000000" fill-rule="nonzero">
            <g id="icon1" transform="translate(65.000000, 57.000000)">
                <g id="spade">
                    <path d="M0,110.222346 L0,100.67933 C0.144433852,100.116586 0.25524432,99.545744 0.331843575,98.9698324 C1.09288162,89.3815118 3.83199976,80.0548146 8.37653631,71.5776536 C13.4044693,61.9441341 20.4435754,53.9195531 28.2368715,46.4379888 C46.3273743,29.1620112 66.5798883,14.5810056 87.5463687,1.00558659 C89.7284916,-0.412290503 91.649162,-0.22122905 93.750838,1.15642458 C112.173184,13.1430168 129.951955,25.9843575 146.403352,40.6357542 C154.146369,47.5441341 161.487151,54.824581 167.52067,63.3620112 C178.582123,79.2100559 182.775419,96.7977654 180.201117,115.944134 C178.541899,128.272626 173.55419,139.072626 163.930726,147.117318 C148.76648,159.827933 131.329609,162.864804 112.414525,157.675978 C109.015642,156.740782 105.827933,155.021229 102.489385,153.653631 C104.721788,162.174302 106.987709,170.785475 109.287151,179.487151 L71.396648,179.487151 L78.2044693,153.63352 C77.7519553,153.804469 77.5407821,153.864804 77.3497207,153.965363 C66.0067039,160.290503 53.8893855,161.396648 41.4100559,158.912849 C18.673743,154.387709 3.77094972,138.268156 0.663687151,115.270391 C0.432402235,113.631285 0.22122905,111.901676 0,110.222346 Z" id="Path"></path>
                </g>
                <g transform="translate(222.000000, 0.000000)" id="Path">
                    <path d="M0,113.138372 L0,106.084884 C0.313953488,104.190698 0.554651163,102.275581 0.941860465,100.39186 C4.70958446,81.5424102 19.5552846,66.8748254 38.4488372,63.3348837 C40.677907,62.8953488 42.9383721,62.6755814 45.1046512,62.3616279 C39.7674419,40.1232558 45.1255814,21.4325581 64.2767442,8.51860465 C81.0837209,-2.81511628 99.2197674,-2.83604651 116.068605,8.43488372 C135.355814,21.327907 140.755814,40.0604651 135.439535,62.1732558 C159.959302,65.4802326 176.065116,78.4883721 179.874419,103.604651 C182.731395,122.44186 175.437209,138.244186 159.498837,148.677907 C139.761628,161.602326 120.212791,159.226744 101.595349,144.983721 C104.965116,156.422093 108.293023,167.745349 111.673256,179.215116 L68.5255814,179.215116 C71.8848837,167.80814 75.1813953,156.6 78.4988372,145.360465 C78.2686047,145.360465 78.1953488,145.360465 78.1534884,145.360465 L76.6255814,146.511628 C65.1139535,155.480233 52.105814,158.944186 37.9046512,155.836047 C18.9104651,151.65 6.77093023,139.824419 1.48604651,121.102326 C0.753488372,118.486047 0.481395349,115.775581 0,113.138372 Z"></path>
                </g>
            </g>
        </g>
    </g>
</svg>